<svg xmlns="http://www.w3.org/2000/svg" xmlns:xlink="http://www.w3.org/1999/xlink" width="20" height="20"><defs><path id="a" d="M.002.02h16.275v16.276H.002z"/></defs><g fill="none" fill-rule="evenodd"><g transform="translate(0 3.704)"><mask id="b" fill="#fff"><use xlink:href="#a"/></mask><path fill="#333" d="M1.415 2.142c0-.39.317-.707.708-.707h12.03c.392 0 .709.317.709.707v12.031a.708.708 0 0 1-.708.708H2.124a.708.708 0 0 1-.709-.708V2.143zm.708 14.154h12.03c1.173 0 2.124-.95 2.124-2.123V2.143c0-1.173-.95-2.124-2.123-2.124H2.124A2.124 2.124 0 0 0 0 2.142v12.031c0 1.173.95 2.123 2.123 2.123z" mask="url(#b)"/></g><path fill="#333" d="M17.87 0H5.093a2.13 2.13 0 0 0-2.13 2.13.71.71 0 1 0 1.42 0 .71.71 0 0 1 .71-.71H17.87a.71.71 0 0 1 .71.71v12.777a.71.71 0 0 1-.71.71.71.71 0 1 0 0 1.42 2.13 2.13 0 0 0 2.13-2.13V2.13A2.13 2.13 0 0 0 17.87 0"/></g></svg>