<svg viewBox="0 0 114 37" xmlns="http://www.w3.org/2000/svg"><g fill="none" fill-rule="evenodd"><text font-family="Roboto, sans-serif" font-size="20" fill="#393636" transform="translate(0 -3)"><tspan x="41.702" y="19">GOLOS</tspan></text><g fill-rule="nonzero"><path d="M15.255 14.12c2.65-1.06 4.503-3.616 4.503-6.588.021-3.927-3.254-7.128-7.261-7.128-4.03 0-7.304 3.2-7.304 7.128 0 1.329.864 2.987 2.594 4.974a.426.426 0 0 1-.162.674L5.06 14.213a.425.425 0 0 0 .11.817c4.509.524 7.87.22 10.086-.91z" fill="#2879FF"/><path d="M31.683 22.764c-2.3-.796-5.18-.51-8.641.857a.17.17 0 0 1-.195-.266c2.67-3.26 3.978-7.267 3.924-12.02-.021-2.697-.678-4.963-1.969-6.8a.801.801 0 0 0-1.457.461c0 7.98-5.128 13.342-13.38 13.342-1.774 0-4.58-.707-8.42-2.121a.851.851 0 0 0-.902 1.394c.793.81 1.495 1.502 2.104 2.078.7.66 1.53 1.413 2.672 2.016 3.706 1.932 6.55 2.16 6.83 2.182.043 4.052-2.844 9.726-6.938 9.726a8.612 8.612 0 0 1-1.81-.208 7.862 7.862 0 0 1-.91-.233.851.851 0 0 0-1 1.233c.822 1.437 2.321 2.254 4.496 2.45 5.063.457 7.39-.603 12.41-3.554 5.365-3.159 9.437-6.505 12.561-5.674.87.23 1.462 1.108 1.772 2.638a.851.851 0 0 0 1.658.042c.126-.487.21-.86.255-1.121.215-1.33.603-5.154-3.06-6.422z" fill="#2879FF"/><path d="M13.002 3.301c1.475 0 2.805.777 3.698 1.99.204.213.39.247.56.102.171-.145.171-.365 0-.66-1.038-1.383-2.575-2.28-4.258-2.28-1.184 0-2.285.436-3.2 1.164-.27.225-.35.439-.236.64.113.2.33.222.652.063.79-.63 1.745-1.019 2.784-1.019z" stroke="#FFF" stroke-width=".851" fill="#FFF"/></g><text font-family="Roboto, sans-serif" font-size="12.5" fill="#959595" transform="translate(0 -3)"><tspan x="42.553" y="34.58">beta</tspan></text></g></svg>
