<svg viewBox="0 0 500 357" xmlns="http://www.w3.org/2000/svg" xmlns:xlink="http://www.w3.org/1999/xlink"><defs><path d="M.127 27.253c-1.428-8.729 12.869-12.147 16.591-6.832-1.193-8.336 5.54-19.269 17.087-20.21C55.6-1.83 49.283 14.37 59.759 14.603c9.57-.18 2.437-14.015 24.206-7.084 5.211 1.55 7.851 7.375 11.536 14.575 7.457-8.207 12.026-2.863 13.396 5.158a385.844 385.844 0 0 1-108.77 0z" id="a"/><path d="M.28 30.723c-.98-9.744 8.838-13.556 11.396-7.625-.82-9.304 3.803-21.506 11.733-22.557 14.97-2.275 10.63 15.803 17.826 16.065 6.572-.202 1.673-15.643 16.623-7.907 3.579 1.729 5.393 8.231 7.921 16.267 5.123-9.16 8.263-3.195 9.203 5.757-24.775 5.73-49.925 5.73-74.702 0z" id="b"/></defs><g fill="none" fill-rule="evenodd"><use fill="#E2E5E6" xlink:href="#a" transform="translate(357.08 155.519)"/><path d="M480.302 303.828c-3.251 6.916-4.166 20.024-11.827 22.161-3.173.887-7.161-.345-11.18-1.578-4.704-1.442-9.442-2.885-12.954-.926-9.46 5.283 1.678 13.084-9.741 15.914-4.704 1.165-25.61 2.82-30.362 2.029-.695-.115-1.787-.025-3.087.066-3.778.264-9.305.528-11.88-4.267-7.61-14.176 73.456-74.222 105.78-60.135 14.817 6.457-11.91 20.693-14.749 26.736" fill="#64840E"/><path d="M398.917 342.086c-.324 0-.653-.008-.985-.026.287-.14.568-.29.845-.449a44.723 44.723 0 0 0 2.374-.117c.863-.06 1.635-.12 2.26-.12.316 0 .594.015.827.054-1.053.256-3.062.658-5.32.658" fill="#187070"/><path d="M398.777 341.611c3.369-1.927 5.99-5.055 7.556-5.9 4.834-2.608 9.231-5.874 12.655-10.211 7.548-9.572-3.221-13.101-1.616-22.203 7.86-5.738 16.716-11.297 25.733-15.948-3.949 29.933-18.346 49.1-38.867 54.079a5.202 5.202 0 0 0-.827-.054c-.625 0-1.397.06-2.26.12-.736.052-1.539.103-2.374.117" fill="#58750A"/><path d="M389.07 336.798l-.861-.99c42.177-36.846 66.246-44.2 91.738-51.989 2.007-.615 4.018-1.232 6.047-1.861l.39 1.25c-2.029.632-4.049 1.248-6.056 1.864-25.348 7.746-49.292 15.062-91.257 51.726" fill="#799921"/><path d="M465.887 302.827c-6.672-5.19-11.987-4.78-19.348-4.208-1.075.081-2.194.17-3.355.241l-.083-1.308a173.2 173.2 0 0 0 3.334-.24c7.37-.57 13.188-1.02 20.259 4.483l-.807 1.032m-45.417 9.445l-.096-1.307c1.296-.095 2.465-.217 3.496-.323 4.734-.493 7.591-.792 13.556 2.109l-.572 1.176c-5.636-2.739-8.194-2.47-12.85-1.982-1.039.106-2.217.231-3.535.327m39.418-20.742l-1.365-.269c3.173-1.647 6.48-5.157 8.948-7.686 1.565-1.61 3.182-3.269 4.968-4.702l.82 1.024c-1.726 1.378-3.313 3.012-4.852 4.592-2.536 2.604-5.159 5.297-8.519 7.04" fill="#799921"/><path d="M448.56 248.698c1.902 8.498 2.44 17.522-2.966 24.797-4.856 6.547-24.017 19.071-27.337 26.89-4.83 11.368 9.038 14.585.73 25.115-3.423 4.337-7.82 7.603-12.654 10.212-2.758 1.488-8.795 10.06-16.414 6.675-16.756-7.445-11.389-19.116-13.86-26.542-5.081-15.27-7.12-33.527 2.586-43.152 1.966-1.949 4.83-1.862 7.677-1.777 2.908.088 5.8.176 7.704-1.902 3.453-3.77 1.712-18.652 3.921-24.16 2.653-6.61 6.837-6.513 10.336-6.417 2.554.07 4.744.14 5.705-2.4 4.87-12.876 29.78-29.038 37.823-24.842 16.33 8.522-4.916 30.077-3.252 37.503" fill="#799921"/><path d="M389.349 342.12l-1.177-.943c12.237-62.64 28.662-85.386 46.168-110.204 1.378-1.953 2.761-3.912 4.144-5.896l1.07.749c-1.382 1.986-2.765 3.946-4.144 5.905-17.423 24.697-33.878 48.025-46.061 110.388" fill="#FFF"/><path d="M411.605 270.093l-.864-.982a278.1 278.1 0 0 0 2.833-2.545c6.218-5.65 11.133-10.111 21.308-10.099v1.31c-9.672-.011-14.185 4.085-20.43 9.757-.909.826-1.852 1.682-2.847 2.559m-11.085 27.954l-.878-.975c1.102-.992 2.07-1.92 2.923-2.737 3.903-3.741 6.261-6 13.638-7.552l.268 1.282c-7.01 1.474-9.137 3.514-13.002 7.216-.858.823-1.833 1.758-2.95 2.766m20.983-46.199l-1.51.986c1.712-3.714 2.5-9.392 2.955-13.398.285-2.539.58-5.164 1.187-7.693l1.275.308c-.59 2.447-.88 5.033-1.162 7.534-.464 4.107-.943 8.357-2.745 12.263" fill="#FFF"/><path d="M99.861 346.329c-7.109 0-12.862-5.768-12.862-12.861v-164.51c0-7.109 5.753-12.866 12.862-12.866H374.84c7.097 0 12.856 5.757 12.856 12.865v164.51c0 7.094-5.76 12.862-12.856 12.862H99.861" fill="#2879FF"/><path d="M386.461 168.957c0-6.412-5.215-11.63-11.622-11.63H99.861c-6.41 0-11.629 5.218-11.629 11.63v164.51c0 6.412 5.218 11.626 11.63 11.626h274.977c6.407 0 11.622-5.214 11.622-11.625v-164.51M85.763 333.467v-164.51c0-7.776 6.323-14.1 14.098-14.1H374.84c7.77 0 14.09 6.324 14.09 14.1v164.51c0 7.772-6.32 14.095-14.09 14.095H99.861c-7.775 0-14.098-6.323-14.098-14.095" fill="#1056CA"/><path fill="#FFF" d="M101.368 330.134h272.198V168.69H101.368z"/><path fill="#EBEBEB" d="M101.127 177.782h272.196v-9.932H101.127z"/><path d="M385.401 338.317H89.293a11.546 11.546 0 0 1-1.048-4.294h298.203a11.545 11.545 0 0 1-1.047 4.294" fill="#1B4D74"/><path d="M387.693 338.317H385.4a11.545 11.545 0 0 0 1.047-4.294h1.247v4.283l-.002.01m-298.4 0H87l-.001-.01v-4.283h1.246c.073 1.525.44 2.976 1.048 4.294" fill="#1E2A4B"/><path d="M412.008 335.731H62.683v10.367c4.146 6.178 14.229 10.59 19.406 10.59h310.58c5.138 0 15.156-4.368 19.339-10.501V335.73" fill="#2879FF"/><path d="M62.87 346.415c4.273 6.01 14.102 10.273 19.191 10.273h310.58c5.076 0 14.906-4.262 19.18-10.273H62.872" fill="#1056CA"/><path d="M207.914 335.996c.325 4 3.671 7.151 7.759 7.151h43.346c4.086 0 7.433-3.151 7.759-7.151h-58.864" fill="#F2F1F0"/><path fill="#799921" d="M194 333.448h133.928V159H194z"/><text font-family=".SFNSDisplay, .SF NS Display" font-size="20" letter-spacing="2.857" fill="#2879FF"><tspan x="239" y="163">PASS</tspan></text><path fill="#E0E0E0" d="M195.28 323.467h130.9V168.332h-130.9z"/><path fill="#FFFFFE" d="M195.28 315.26h130.9V160.125h-130.9z"/><path fill="#E0E0E0" d="M306.354 292.153v23.167l19.845-23.167h-19.845"/><path d="M287.993 160.153c-.008-2.299 0-4.599.007-6.898.015-5.728.034-11.643-.166-17.459-16.5-.523-35.552-.971-54.202.083-.142 4.536-.145 9.197-.148 13.71 0 1.95-.002 3.898-.013 5.842l-1.44-.008c.012-1.941.013-3.888.014-5.835.003-4.744.006-9.648.17-14.414l.022-.656.655-.038c19.173-1.12 38.783-.64 55.66-.101l.67.02.026.673c.226 6.058.209 12.225.19 18.187-.006 2.296-.014 4.594-.006 6.89l-1.439.004" fill="#CBCCCB"/><path fill="#EBEBEB" d="M224.535 158.128h72.41v-10.29h-72.41z"/><path fill="#E0E0E0" d="M224.535 168.414h72.41v-10.286h-72.41z"/><text font-family=".SFNSDisplay, .SF NS Display" font-size="20" letter-spacing="2.857" fill="#2879FF"><tspan x="239" y="163">PASS</tspan></text><path d="M277.545 284.13c-9.725 0-19.448-.208-28.908-.469l.009-.947c20.713.57 42.702.887 63.169-.674l.024.948c-11.133.848-22.715 1.142-34.294 1.142m-.014-17.806c-9.727 0-19.445-.207-28.898-.47l.008-.947c20.693.575 42.668.889 63.168-.671l.024.946c-11.147.847-22.73 1.142-34.302 1.142m.017-17.807c-9.734 0-19.461-.209-28.921-.47l.007-.947c20.69.572 42.66.89 63.17-.67l.023.947c-11.141.847-22.716 1.14-34.279 1.14m-28.908-19.108l-.025-.947c20.484-1.557 42.482-1.245 63.2-.673l-.008.948c-20.71-.573-42.697-.886-63.168.672m28.906-19.383c-9.734 0-19.465-.209-28.928-.47l.007-.948c20.706.573 42.69.891 63.169-.672l.023.947c-11.13.848-22.702 1.143-34.271 1.143m-.008-19.839c-9.734 0-19.464-.21-28.928-.471l.009-.948c20.699.573 42.678.89 63.168-.67l.024.948c-11.133.846-22.707 1.14-34.273 1.14" fill="#959595"/><path d="M237.054 194.57c0 7.571-6.135 13.707-13.708 13.707-7.568 0-13.705-6.136-13.705-13.707 0-7.574 6.137-13.71 13.705-13.71 7.573 0 13.708 6.136 13.708 13.71" fill="#F9F9F9"/><path fill="#FFB839" d="M222.586 199.887l-5.264-5.267 1.365-1.365 3.785 3.787 6.761-7.917 1.47 1.253-8.117 9.509"/><path d="M237.054 236.116c0 7.57-6.135 13.706-13.708 13.706-7.568 0-13.705-6.135-13.705-13.706 0-7.575 6.137-13.71 13.705-13.71 7.573 0 13.708 6.135 13.708 13.71" fill="#F9F9F9"/><path fill="#FFB839" d="M222.586 241.434l-5.264-5.268 1.365-1.365 3.785 3.786 6.761-7.916 1.47 1.253-8.117 9.51"/><path d="M237.054 277.661c0 7.572-6.135 13.708-13.708 13.708-7.568 0-13.705-6.136-13.705-13.708 0-7.574 6.137-13.71 13.705-13.71 7.573 0 13.708 6.136 13.708 13.71" fill="#F9F9F9"/><path fill="#FFB839" d="M222.586 282.98l-5.264-5.268 1.365-1.366 3.785 3.788 6.761-7.917 1.47 1.253-8.117 9.51"/><path d="M327.704 251.72v-41.04a26.558 26.558 0 0 1 5.718 6.582c7.044 11.45 4.375 26.146-5.718 34.458" fill="#DBECE4"/><path d="M326.18 252.885v-43.371a25.83 25.83 0 0 1 1.524 1.167v41.039c-.49.404-.998.793-1.523 1.165" fill="#DBBC62"/><path d="M315.588 255.928a28.727 28.727 0 0 1-19.63-7.7 377.73 377.73 0 0 0 15.869-.85l-.024-.948c-5.508.419-11.122.702-16.79.882-4.87-4.954-7.957-11.653-8.255-19.033 8.433.045 16.843.231 25.049.458l.008-.948c-8.218-.227-16.633-.413-25.08-.457a28.762 28.762 0 0 1 2.22-11.36 26.453 26.453 0 0 1 6.06-6.205c5.672-.18 11.291-.464 16.801-.884l-.023-.947c-5.031.384-10.152.655-15.324.836a26.47 26.47 0 0 1 14.273-4.175 26.7 26.7 0 0 1 15.439 4.917v43.371a26.984 26.984 0 0 1-3.725 2.216c-2.204.54-4.505.827-6.868.827" fill="#DBEBEE"/><path d="M295.957 248.229a29.4 29.4 0 0 1-.943-.917c5.667-.18 11.28-.463 16.79-.882l.023.947a378.58 378.58 0 0 1-15.87.852m15.85-19.492c-8.206-.227-16.616-.413-25.049-.458-.013-.315-.02-.63-.023-.947 8.447.044 16.862.23 25.08.457l-.008.948m-16.793-18.97c.472-.345.956-.677 1.455-.995a373.198 373.198 0 0 0 15.324-.836l.023.947c-5.51.42-11.129.704-16.802.884" fill="#4CA1BF"/><path fill="#78C2D0" d="M344.469 275.583l9.093-8.687-17.996-14.152-4.652 4.446 13.555 18.393"/><path fill="#723F68" d="M394.287 326.563l8.913-8.517-50.19-51.546-8.912 8.518 50.189 51.545"/><path d="M288.116 245.147c-7.7-12.516-3.797-28.9 8.713-36.6 12.512-7.702 28.896-3.796 36.593 8.715 7.696 12.511 3.796 28.899-8.715 36.598-12.512 7.698-28.895 3.798-36.591-8.713m21.743 18.337c17.827.502 32.682-13.541 33.184-31.373.505-17.825-13.54-32.69-31.367-33.193-17.823-.5-32.682 13.549-33.184 31.375-.504 17.832 13.542 32.69 31.367 33.191" fill="#78C2D0"/><path d="M310.791 257.809c-7.67 0-15.188-3.319-20.339-9.428 1.84-.04 3.676-.09 5.505-.152a28.727 28.727 0 0 0 19.63 7.699c2.364 0 4.665-.287 6.869-.827a26.44 26.44 0 0 1-11.665 2.708m-21.088-10.359a26.936 26.936 0 0 1-1.587-2.303 26.495 26.495 0 0 1-3.785-16.878c.81.002 1.618.005 2.427.01.298 7.38 3.385 14.079 8.256 19.033-1.765.056-3.537.102-5.311.138" fill="#D1DFD4"/><path d="M290.452 248.381a26.724 26.724 0 0 1-.75-.93 488.82 488.82 0 0 0 5.312-.139c.308.313.622.618.943.917-1.83.061-3.665.112-5.505.152" fill="#4493AD"/><path d="M286.735 227.332c-.76-.005-1.52-.007-2.281-.01.6-4.05 2.126-7.947 4.5-11.35a28.762 28.762 0 0 0-2.219 11.36" fill="#D1DFD4"/><path d="M286.758 228.279c-.81-.005-1.617-.008-2.427-.01.036-.316.077-.63.123-.946.76.002 1.52.004 2.281.009.003.316.01.632.023.947" fill="#4493AD"/><path d="M311.787 259.522a29.2 29.2 0 0 1-.825-.011c-15.926-.449-28.464-13.719-28.016-29.644.25-8.903 4.509-16.752 11-21.86a28.843 28.843 0 0 0-4.992 7.964 26.684 26.684 0 0 0-4.623 12.298 26.495 26.495 0 0 0 3.785 16.878 26.936 26.936 0 0 0 2.336 3.234c5.151 6.11 12.668 9.428 20.34 9.428a26.44 26.44 0 0 0 11.664-2.708 28.768 28.768 0 0 0 10.944-5.344c-5.296 6-13.04 9.765-21.613 9.765" fill="#4E9CAB"/><path d="M282.42 230.405c-.438 15.634 11.918 28.711 27.55 29.152 7.633.215 14.874-2.573 20.391-7.846 5.436-5.194 8.545-12.195 8.757-19.71.213-7.572-2.535-14.775-7.739-20.283-5.203-5.507-12.239-8.656-19.81-8.87-7.63-.215-14.872 2.571-20.392 7.846-5.436 5.194-8.546 12.194-8.757 19.71zm27.524 30.11c-16.157-.459-28.933-13.977-28.48-30.137.22-7.77 3.434-15.007 9.052-20.376 5.707-5.452 13.19-8.332 21.08-8.109 7.825.22 15.1 3.477 20.477 9.168 5.38 5.694 8.219 13.139 8 20.967-.219 7.77-3.434 15.006-9.052 20.375-5.705 5.45-13.19 8.33-21.077 8.111zm46.063 9.008l-1.14-1.155-8.87 8.765 1.141 1.155 8.87-8.765" fill="#FFFFFE"/><path d="M152.422 246.473l-.556-3.833c-.731-4.969-1.485-10.108-1.992-15.283l1.36-.133c.504 5.143 1.255 10.265 1.98 15.219l.56 3.834-1.352.196m-20.955 9.006l-3.23-2.104c-4.216-2.74-8.574-5.573-12.798-8.617l.798-1.107c4.197 3.023 8.542 5.848 12.745 8.58l3.232 2.106-.747 1.142m-23.257 24.838l-.25-1.342c5.068-.947 10.093-2.138 14.956-3.292l3.801-.897.312 1.328-3.799.895c-4.877 1.159-9.92 2.354-15.02 3.308m74.032-24.838l-.747-1.142 3.233-2.106c4.201-2.732 8.546-5.557 12.743-8.58l.799 1.107c-4.225 3.044-8.583 5.877-12.798 8.617l-3.23 2.104m23.258 24.838c-5.102-.954-10.143-2.15-15.02-3.308l-3.799-.895.311-1.328 3.802.897c4.862 1.154 9.888 2.345 14.956 3.292l-.25 1.342" fill="#FFB839"/><path d="M151.287 329.475c.022.297 1.676 4.068 1.7 4.366h8.228c-.031-.298 1.24-4.069 1.208-4.366h-11.136" fill="#9EDAE5"/><path d="M146.363 303.69c.832 2.081 1.604 12.38 2.346 14.49h17.498c.81-2.121 1.651-12.427 2.558-14.51 1.991-2.874 11.156-13.542 14.262-23.535 4.184-12.543-7.535-30.253-25.696-30.278-18.106-.159-30.877 16.32-26.702 28.903 3.128 10.437 11.86 20.247 15.734 24.93" fill="#FFB839"/><path d="M158.761 267.12a.533.533 0 0 0-.266.106c-.841.572-1.74 2.813-1.1 6.004.142.717.299 1.398.466 2.042.425-1.436.827-3.155 1.193-5.21.351-1.975.017-2.773-.207-2.918l-.086-.023zm-13.53 3.907c-.276.372-.09 2.325 1.29 5.13.797 1.622 1.93 3.356 3.198 4.545-.286-1.8-.569-3.443-.839-4.868l-.015-.076c-.255-1.35-.854-4.506-2.177-5.051-.407-.168-.883-.061-1.456.32zm23.003 1.533c-.3.168-.867 1.148-1.147 1.631l-.207.358c-.998 1.697-1.871 3.99-2.617 6.655a8.94 8.94 0 0 0 .953-.952c1.478-1.696 3.84-5.537 3.285-7.15-.117-.343-.217-.486-.267-.542zm-7.59 44.268c-1.33-7.291-.683-22.625 1.97-33.664-.362.04-.72.013-1.072-.08-1.66-.443-2.874-2.33-3.738-4.479-1.25 2.82-2.774 4.37-4.56 4.622-.706.1-1.407-.01-2.086-.285 1.573 10.552 3.269 25.873 2.839 33.818l-1.084-.058c.409-7.528-1.265-23.344-2.947-34.414-1.78-1.232-3.341-3.458-4.42-5.652-1.14-2.319-2.097-5.388-1.05-6.41l.071-.06c.91-.624 1.762-.78 2.533-.462 1.867.768 2.495 4.075 2.832 5.852l.015.076c.308 1.627.656 3.68 1.015 6.015.7.406 1.42.607 2.13.506 1.22-.173 2.768-1.307 4.169-5.064a33.652 33.652 0 0 1-.93-3.646c-.701-3.5.252-6.229 1.555-7.114.528-.359 1.093-.393 1.55-.095.81.524 1.054 1.952.686 4.018-.48 2.697-1.054 4.98-1.72 6.845.954 2.825 2.158 4.603 3.419 4.937.344.09.705.079 1.085-.037.833-3.196 1.847-5.972 3.039-7.998l.203-.35c.676-1.169 1.312-2.278 2.202-2.187.76.072 1.073.986 1.177 1.286.861 2.506-2.536 7.119-3.493 8.217-.742.85-1.472 1.456-2.188 1.818-2.697 10.831-3.468 26.539-2.134 33.85l-1.068.195z" fill="#FFF"/><path d="M147.83 318.148c-1.982-.186-2.081 2.976.415 3.127-2.547-.1-2.65 3.16-.161 3.197-2.49-.136-2.592 3.536-.247 3.743-.597.65-1.064 1.158-1.569 1.705 3.22 1.51 21.025 1.41 21.396-.16-.438-.52-.923-1.1-1.42-1.685 2.5-.22 1.837-3.533-.247-3.38 2.796-.307 1.728-3.62-.013-3.394 2.351-.433 1.637-2.828.3-3.121l1.708-2.342H145.72l2.111 2.31zM239.466 1.59a70.32 70.32 0 0 0-11.262-.55l-.032-.946a71.121 71.121 0 0 1 11.416.556l-.122.94zm-33.305 3.84l-.333-.887A70.375 70.375 0 0 1 216.82 1.4l.185.93a69.534 69.534 0 0 0-10.844 3.1zM261.1 7.806a80.79 80.79 0 0 0-10.591-3.905l.262-.91a81.648 81.648 0 0 1 10.718 3.951l-.389.864zm-74.483 8.747l-.589-.74a74.96 74.96 0 0 1 9.458-6.408l.47.823a74.106 74.106 0 0 0-9.339 6.325zm93.768 2.97a102.226 102.226 0 0 0-9.3-6.432l.494-.809a103.224 103.224 0 0 1 9.387 6.492l-.581.748zM171.243 32.985l-.779-.542a79.84 79.84 0 0 1 7.174-8.883l.692.646a78.752 78.752 0 0 0-7.087 8.779zm125.624 2.02a135.725 135.725 0 0 0-7.894-8.117l.65-.69a136.388 136.388 0 0 1 7.95 8.176l-.706.631zm13.857 17.917a177.54 177.54 0 0 0-6.62-9.199l.748-.578a178.563 178.563 0 0 1 6.66 9.248l-.788.53zm-149.618.182l-.897-.305a82.351 82.351 0 0 1 4.412-10.537l.847.426a81.36 81.36 0 0 0-4.362 10.416zm-4.24 22.13l-.946-.05a84.315 84.315 0 0 1 1.376-11.339l.93.178a83.323 83.323 0 0 0-1.36 11.212zm.85 22.675a89.73 89.73 0 0 1-1.64-11.302l.945-.076c.297 3.717.843 7.48 1.622 11.183l-.926.195zm7.322 21.588a101.826 101.826 0 0 1-4.292-10.578l.897-.306a100.783 100.783 0 0 0 4.252 10.48l-.857.404zm-58.326.703l-.206-.925a65.848 65.848 0 0 1 11.326-1.504l.042.947a64.94 64.94 0 0 0-11.162 1.482zm33.484 1.204a74.428 74.428 0 0 0-11.059-2.24l.116-.94c3.7.454 7.468 1.217 11.199 2.267l-.256.913zm-54.26 7.307l-.496-.807a71.397 71.397 0 0 1 10.17-5.192l.36.877a70.448 70.448 0 0 0-10.034 5.122zm75.002 1.56a100.339 100.339 0 0 0-10.104-5.074l.375-.87a101.34 101.34 0 0 1 10.2 5.122l-.47.822zm15.88 8.738a122.03 122.03 0 0 1-6.372-9.463l.81-.491a120.853 120.853 0 0 0 6.322 9.389l-.76.565zm-108.183 4.13l-.699-.64a87.217 87.217 0 0 1 8.243-7.906l.61.726a86.23 86.23 0 0 0-8.154 7.82zm110.794.163a140.729 140.729 0 0 0-8.962-6.925l.548-.774a141.666 141.666 0 0 1 9.022 6.972l-.608.727zM55.442 161.467l-.826-.465a104.7 104.7 0 0 1 6.13-9.63l.77.552a103.675 103.675 0 0 0-6.074 9.543zm-9.018 20.717l-.902-.291a116.12 116.12 0 0 1 4.022-10.675l.868.378a115.284 115.284 0 0 0-3.988 10.588zm-4.803 22.092l-.94-.11a117.59 117.59 0 0 1 1.88-11.255l.925.202a116.889 116.889 0 0 0-1.865 11.163zm-1.31 22.684a110.157 110.157 0 0 1-.395-11.407l.948.016a109.284 109.284 0 0 0 .39 11.308l-.944.083zm4.438 22.35a100.612 100.612 0 0 1-2.841-11.05l.929-.184a99.455 99.455 0 0 0 2.814 10.946l-.902.288zm9.48 20.725a93.202 93.202 0 0 1-5.369-10.075l.861-.393a92.325 92.325 0 0 0 5.315 9.971l-.807.497zm14.25 17.779a93.285 93.285 0 0 1-7.675-8.448l.739-.59a92.45 92.45 0 0 0 7.597 8.358l-.66.68zM86.54 301.7a103.687 103.687 0 0 1-9.426-6.427l.576-.75a102.885 102.885 0 0 0 9.34 6.366l-.49.81zm20.564 9.791a125.581 125.581 0 0 1-10.517-4.4l.407-.856a124.156 124.156 0 0 0 10.436 4.366l-.326.89zm21.938 6.103a157.191 157.191 0 0 1-11.085-2.628l.253-.914c3.549.983 7.256 1.861 11.018 2.613l-.186.929zm14.997 2.326a175.148 175.148 0 0 1-3.762-.464l.126-.938c1.235.164 2.482.32 3.743.46l-.107.942z" fill="#78C2D0"/><path d="M359.23 90.9c0 22.339-18.104 40.44-40.427 40.44-22.337 0-40.435-18.101-40.435-40.44 0-22.315 18.098-40.424 40.435-40.424 22.323 0 40.427 18.109 40.427 40.423" fill="#D8583A"/><path d="M354.163 90.9c0 22.339-18.105 40.44-40.428 40.44-22.338 0-40.435-18.101-40.435-40.44 0-22.315 18.097-40.424 40.435-40.424 22.323 0 40.428 18.109 40.428 40.423" fill="#FC5D16"/><path d="M347.17 90.9c0 18.472-14.964 33.436-33.43 33.436-18.45 0-33.415-14.964-33.415-33.435 0-18.449 14.965-33.41 33.415-33.41 18.466 0 33.43 14.961 33.43 33.41" fill="#FFFFFE"/><path d="M340.5 90.897c0 14.808-11.97 26.788-26.763 26.788-14.791 0-26.776-11.98-26.776-26.788 0-14.762 11.985-26.764 26.776-26.764 14.793 0 26.762 12.002 26.762 26.764" fill="#FFB839"/><path d="M324.797 90.9c0 6.11-4.954 11.065-11.058 11.065-6.106 0-11.052-4.955-11.052-11.064 0-6.094 4.946-11.042 11.052-11.042 6.104 0 11.058 4.948 11.058 11.042" fill="#FFFFFE"/><path d="M320.692 90.905a6.955 6.955 0 0 1-6.952 6.954c-3.838 0-6.945-3.114-6.945-6.954 0-3.83 3.107-6.94 6.945-6.94 3.837 0 6.952 3.11 6.952 6.94" fill="#FC5D16"/><path d="M313.613 69.332c-11.899 0-21.58 9.683-21.58 21.583 0 11.901 9.681 21.583 21.58 21.583s21.58-9.682 21.58-21.583c0-11.9-9.681-21.583-21.58-21.583zm0 44.114c-12.421 0-22.527-10.107-22.527-22.53 0-12.424 10.106-22.532 22.527-22.532 12.421 0 22.526 10.108 22.526 22.531 0 12.424-10.105 22.53-22.526 22.53z" fill="#FFFFFE"/><path fill="#68B0BD" d="M361.31 91.446l6.149-9.734 16.623-.383-6.142 9.74-16.63.377"/><path fill="#78C2D0" d="M360.581 90.8l8.382 9.435 16.611-.379-8.376-9.423-16.617.367"/><path fill="#68B0BD" d="M313.818 92.189h64.992v-2.55h-64.992z"/><use fill="#E2E5E6" xlink:href="#b" transform="translate(.289 193.676)"/></g></svg>
