<svg viewBox="0 0 392 400" xmlns="http://www.w3.org/2000/svg" xmlns:xlink="http://www.w3.org/1999/xlink"><defs><path d="M48.245 12.43c.629-3.843-5.66-5.348-7.298-3.007C41.47 5.753 38.51.941 33.43.525c-9.588-.898-6.808 6.233-11.417 6.336-4.21-.078-1.072-6.169-10.648-3.118-2.292.682-3.454 3.246-5.074 6.415C3.012 6.546 1 8.898.397 12.43a169.668 169.668 0 0 0 47.848 0z" id="a"/><linearGradient x1="50%" y1="0%" x2="50%" y2="100%" id="b"><stop stop-color="#F2F3F4" offset="0%"/><stop stop-color="#E1E3E5" offset="100%"/></linearGradient><path d="M122.507 262.565c-54.996-.002-92.935-37.94-114.146-102.127C-19.32 73.744 28.18 29.292 82.994 9.101c17.75-6.409 36.873-9.065 55.02-9.065 38.343 0 72.32 11.861 79.732 25.234 40.029 72.212-56.557 50.6-53.487 87.586.47 2.44 1.365 4.257 2.624 5.567h-10.098c-10.656-13.345-26.972-21.335-44.268-21.335-4.37 0-8.8.51-13.22 1.571C91.16 83.28 87.956 76 87.956 76s-.285-10.591-.456-13.747c-.179-3.296-3.406-9.678-5.953-11.777-2.607-2.147-12.989-3.66-12.989-3.66l7.952 15.736-8.936 4.527-7.956-15.737s-4.936 9.272-4.75 12.642c.175 3.296 3.403 9.68 5.948 11.778 2.442 2.012 7.144 4.544 7.144 4.544s4.964 11.083 12.1 26.98a56.532 56.532 0 0 0-11.858 11.138H21.42v46.805h35.553a57.83 57.83 0 0 0 .932 3.842c6.993 25.07 29.762 41.477 54.552 41.48a56.59 56.59 0 0 0 14.958-2.019c3.123 3.116 6.557 4.327 9.953 4.327 2.892 0 5.758-.878 8.38-2.206 6.683-3.38 10.365-11.276 8.095-18.047a57.006 57.006 0 0 0 14.166-27.377h96.527c-4.646 24.515-47.849 87.084-126.92 96.425-5.175.61-10.208.912-15.11.912m16.74-58.738a56.219 56.219 0 0 0 5.51-3.367 6.932 6.932 0 0 1-2.83 2.631 6.937 6.937 0 0 1-2.68.736m110.062-85.404h-58.152c2.582-.698 5.268-1.465 8.021-2.233 9.154-2.55 19.05-5.102 28.335-5.102 8.01 0 15.565 1.898 21.796 7.335" id="c"/><path d="M.518 34.642c-1.416-10.99 12.763-15.29 16.458-8.602C15.792 15.547 22.468 1.786 33.92.6c21.62-2.566 15.354 17.824 25.745 18.118 9.492-.227 2.416-17.641 24.008-8.916 5.17 1.947 7.787 9.284 11.44 18.345 7.399-10.33 11.934-3.603 13.29 6.495-35.78 6.461-72.104 6.461-107.886 0z" id="d"/><path d="M78.895 24.581c1.03-7.872-9.28-10.956-11.966-6.161.86-7.52-3.994-17.382-12.322-18.233C38.89-1.655 43.447 12.96 35.89 13.17c-6.902-.162-1.757-12.643-17.455-6.39-3.758 1.396-5.663 6.653-8.319 13.146-5.378-7.401-8.675-2.58-9.664 4.654a223.065 223.065 0 0 0 78.443 0z" id="e"/><path d="M41.266 35.482a46.474 46.474 0 0 1-30.717-11.557 47.382 47.382 0 0 1-3.254-3.136A50.71 50.71 0 0 1 1.934 8.306 51.009 51.009 0 0 1 .36.17h34.564a10520.51 10520.51 0 0 0 15.58 34.392c-3.042.611-6.14.919-9.238.919m19.351-4.183a6.986 6.986 0 0 1 3.806-5.732 6.94 6.94 0 0 1 3.14-.751c.944 0 1.875.192 2.736.556a46.332 46.332 0 0 1-9.682 5.927m16.749-12.891A2090.344 2090.344 0 0 1 66.195.17H86.56a46.501 46.501 0 0 1-9.194 18.237" id="f"/><path d="M36.84 9.458H3.952A1138.443 1138.443 0 0 1 .146 2.593 50.608 50.608 0 0 1 15.788.109c1.608 0 3.207.078 4.791.23a46.516 46.516 0 0 1 16.26 9.119" id="h"/></defs><g fill="none" fill-rule="evenodd"><use fill="#E1E4E6" xlink:href="#a" transform="translate(48.081 220.077)"/><use fill="url(#b)" xlink:href="#c" transform="translate(76.103 45.824)"/><use fill="#E1E4E6" xlink:href="#d" transform="translate(65.537 .307)"/><path d="M194.331 75.49l-.044-.355a99.618 99.618 0 0 1 4.279-.451l.03.356c-1.407.118-2.838.27-4.265.45zm12.826-.771a85.571 85.571 0 0 0-4.283.06l-.014-.36a86.322 86.322 0 0 1 4.302-.059l-.005.359zm-21.28 2.19l-.074-.351c1.4-.291 2.822-.56 4.227-.795l.057.353c-1.397.235-2.815.502-4.21.793zm-8.328 2.072l-.1-.344c1.372-.398 2.77-.774 4.158-1.12l.087.348c-1.384.344-2.777.72-4.145 1.116zm38.15-3.672a67.045 67.045 0 0 0-4.26-.422l.024-.357c1.46.099 2.901.241 4.285.424l-.05.355zm-46.287 6.386l-.126-.335c1.326-.504 2.69-.99 4.055-1.444l.112.34c-1.36.453-2.719.937-4.04 1.439zm54.653-4.61a47.749 47.749 0 0 0-4.145-1.06l.073-.35c1.445.304 2.852.662 4.174 1.068l-.102.342zm-62.529 8l-.156-.322a94.248 94.248 0 0 1 3.915-1.791l.14.329a92.836 92.836 0 0 0-3.899 1.784zm70.34-4.595a31.531 31.531 0 0 0-3.8-1.941l.143-.33a31.5 31.5 0 0 1 3.84 1.965l-.183.306zm-77.836 8.747l-.19-.302a74.689 74.689 0 0 1 3.707-2.19l.173.314a73.195 73.195 0 0 0-3.69 2.178zm-6.898 5.068l-.234-.273a54.155 54.155 0 0 1 3.376-2.677l.212.288a53.563 53.563 0 0 0-3.354 2.662zm91.117-8.25a21.52 21.52 0 0 0-2.932-3.075l.232-.27a21.583 21.583 0 0 1 2.981 3.125l-.28.22zm-96.975 14.452l-.288-.212A35.485 35.485 0 0 1 143.781 97l.26.247a35.053 35.053 0 0 0-2.757 3.26zm100.606-6.835a20.575 20.575 0 0 0-1.406-4.006l.323-.153a20.988 20.988 0 0 1 1.43 4.076l-.347.083zm-126.928 16.53a27.703 27.703 0 0 0-4.262-.058l-.022-.357a27.879 27.879 0 0 1 4.316.059l-.032.357zm22.41-2.17l-.342-.106a23.016 23.016 0 0 1 1.656-3.986l.317.167a22.549 22.549 0 0 0-1.63 3.924zm-34.982 3.898l-.124-.337a31.264 31.264 0 0 1 4.139-1.208l.075.35a30.633 30.633 0 0 0-4.09 1.195zm20.823.312a29.802 29.802 0 0 0-4.05-1.326l.086-.348c1.372.342 2.752.793 4.1 1.343l-.136.331zm-28.386 3.616l-.201-.296a37.061 37.061 0 0 1 3.699-2.217l.166.318a36.56 36.56 0 0 0-3.664 2.195zm35.805.578a37.892 37.892 0 0 0-3.582-2.324l.176-.312a38.54 38.54 0 0 1 3.618 2.346l-.212.29zm5.745.049a19.028 19.028 0 0 1-.157-4.317l.357.027a18.772 18.772 0 0 0 .153 4.236l-.353.054zm-48.074 4.883l-.257-.25a43.893 43.893 0 0 1 3.149-2.945l.23.274a44.076 44.076 0 0 0-3.122 2.92zm48.716.745a50.89 50.89 0 0 0-3.065-2.986l.238-.267a51.426 51.426 0 0 1 3.087 3.006l-.26.247zm-54.083 5.91l-.297-.198a48.268 48.268 0 0 1 2.552-3.476l.279.224a48.34 48.34 0 0 0-2.534 3.45zm56.382-3.447a25.43 25.43 0 0 1-1.852-3.905l.335-.124a25.106 25.106 0 0 0 1.826 3.85l-.31.18zm-60.492 10.95l-.328-.144a48.924 48.924 0 0 1 1.904-3.871l.314.172a48.368 48.368 0 0 0-1.89 3.843zm-2.68 8.118l-.347-.08c.31-1.38.698-2.778 1.154-4.154l.34.111a43.743 43.743 0 0 0-1.146 4.123zm-.957 8.482l-.358.003a36.67 36.67 0 0 1 .243-4.31l.355.04a36.383 36.383 0 0 0-.24 4.267zm.817 8.538a29.968 29.968 0 0 1-.883-4.227l.354-.05c.194 1.429.487 2.834.872 4.178l-.343.099zm3.636 7.804a26.78 26.78 0 0 1-2.13-3.757l.324-.151a26.388 26.388 0 0 0 2.101 3.706l-.295.202zm5.899 6.27a28.879 28.879 0 0 1-3.192-2.906l.26-.245a28.79 28.79 0 0 0 3.152 2.87l-.22.281zm7.41 4.381a37.062 37.062 0 0 1-3.84-1.957l.18-.31a36.529 36.529 0 0 0 3.804 1.94l-.144.327z" fill="#1A4B76"/><path d="M279.127 19.066l-.075-.352a53.38 53.38 0 0 1 4.248-.718l.044.354a53.132 53.132 0 0 0-4.217.716zm12.76-1.148a55.086 55.086 0 0 0-4.28.054l-.018-.359a56.74 56.74 0 0 1 4.306-.054l-.009.359zm-20.931 3.655l-.136-.33a44.008 44.008 0 0 1 4.057-1.454l.104.342a43.93 43.93 0 0 0-4.025 1.442zm29.44-2.793a55.422 55.422 0 0 0-4.238-.593l.036-.357a56.04 56.04 0 0 1 4.266.598l-.064.352zm8.266 2.189a50.39 50.39 0 0 0-4.088-1.264l.092-.347a50.7 50.7 0 0 1 4.118 1.273l-.122.338zm-45.144 4.766l-.213-.287a32.436 32.436 0 0 1 3.63-2.335l.173.314a31.912 31.912 0 0 0-3.59 2.308zm52.9-1.186a44.704 44.704 0 0 0-3.795-1.968l.15-.325a44.69 44.69 0 0 1 3.823 1.983l-.178.31zm-58.746 7.323l-.302-.192a21.827 21.827 0 0 1 2.686-3.387l.257.25a21.432 21.432 0 0 0-2.641 3.33zm65.654-2.313a41.283 41.283 0 0 0-3.321-2.683l.208-.29a41.487 41.487 0 0 1 3.354 2.707l-.24.266zm-68.412 10.268l-.355-.033c.133-1.443.44-2.865.917-4.228l.336.117a17.41 17.41 0 0 0-.898 4.144zm74.098-3.91a38.995 38.995 0 0 0-2.668-3.334l.267-.24a39.015 39.015 0 0 1 2.691 3.368l-.29.207zm-73.354 12.408a23 23 0 0 1-.995-4.208l.354-.048a22.93 22.93 0 0 0 .98 4.142l-.339.114zm-19.548 2.51l-.07-.351a32.082 32.082 0 0 1 4.28-.536l.023.359a32.091 32.091 0 0 0-4.233.528zm12.767-.185a53.168 53.168 0 0 0-4.262-.369l.016-.357c1.374.06 2.817.185 4.29.371l-.044.355zm84.3-7.289a40.504 40.504 0 0 0-1.881-3.835l.311-.174a40.854 40.854 0 0 1 1.9 3.867l-.33.142zM228.27 53.991l-.202-.295a18.674 18.674 0 0 1 3.823-2.015l.13.332a18.464 18.464 0 0 0-3.751 1.977zm29.013-1.733a81.242 81.242 0 0 0-4.18-.928l.066-.352a81.51 81.51 0 0 1 4.201.933l-.087.347zm-34.328 8.2l-.33-.142a15.262 15.262 0 0 1 2.25-3.701l.275.229a14.8 14.8 0 0 0-2.195 3.614zm112.787-8.955a45.544 45.544 0 0 0-1.088-4.133l.34-.108a46.378 46.378 0 0 1 1.098 4.165l-.35.076zm.725 4.254l-.004-.038.354-.044.005.037-.355.045zM221.655 68.784l-.357.026a20.106 20.106 0 0 1 .162-4.325l.355.053a19.731 19.731 0 0 0-.16 4.246zm1.723 8.384a27.515 27.515 0 0 1-1.392-4.09l.347-.088c.34 1.351.804 2.708 1.374 4.037l-.329.141zm4.508 7.343a30.784 30.784 0 0 1-2.517-3.51l.307-.187a30.376 30.376 0 0 0 2.484 3.468l-.274.23zm6.387 5.779a29.363 29.363 0 0 1-3.402-2.658l.239-.266c1.06.96 2.19 1.844 3.36 2.627l-.197.297zm7.804 3.631a27.597 27.597 0 0 1-4.045-1.51l.153-.325a26.987 26.987 0 0 0 3.992 1.491l-.1.344z" fill="#1A4B76"/><path fill="#2879FF" d="M294.978 85.814h-19.775l.9-19.791 18.875 2.698v17.093m24.841 14.399l-6.297-5.59 9.693-10.356 4.727 6.783-8.123 9.163"/><path fill="#2879FF" d="M327.975 95.353l-10.602-9.414 9.887-10.181 8.838 10.432-8.123 9.163"/><path fill="#FFB839" d="M320.02 83.212l-2.647 2.727 10.602 9.414 2.519-2.842-10.473-9.299"/><path d="M285.428 81.295c-29.004 0-52.514 23.536-52.514 52.56 0 29.026 23.51 52.56 52.514 52.56 29 0 52.512-23.534 52.512-52.56 0-29.024-23.513-52.56-52.512-52.56" fill="#FFFFFE"/><path d="M285.428 178.6c-24.691 0-44.706-20.033-44.706-44.745 0-24.714 20.015-44.742 44.706-44.742 24.69 0 44.704 20.028 44.704 44.742 0 24.712-20.015 44.745-44.704 44.745zm0-98.516c-29.673 0-55.23 18.416-55.23 48.114 0 29.699 19.778 58.15 55.23 59.43 29.652 1.068 53.552-13.653 56.46-52.473 2.22-29.614-26.79-55.071-56.46-55.071z" fill="#78C2D0"/><path d="M285.49 93.328c-22.33 0-40.496 18.18-40.496 40.527 0 22.349 18.166 40.53 40.495 40.53 22.327 0 40.492-18.181 40.492-40.53 0-22.347-18.165-40.527-40.492-40.527zm0 81.775c-22.725 0-41.212-18.503-41.212-41.248 0-22.743 18.487-41.245 41.211-41.245 22.723 0 41.211 18.502 41.211 41.245 0 22.745-18.488 41.248-41.21 41.248zm0-90.026c-27.534 0-49.935 21.38-49.935 47.66 0 27.046 22.869 49.897 49.934 49.897 27.774 0 51.236-21.794 51.236-47.59 0-26.619-23.94-49.967-51.236-49.967zm0 98.275c-13.216 0-25.847-5.347-35.568-15.055-9.727-9.713-15.084-22.341-15.084-35.56 0-26.676 22.721-48.379 50.651-48.379 27.677 0 51.955 23.685 51.955 50.686 0 13.016-5.593 25.24-15.748 34.418-9.768 8.828-22.963 13.89-36.207 13.89z" fill="#2879FF"/><path d="M268.59 144.478c.834.486 7.237 5.99 7.286 5.983.363-.058 38.02-42.133 38.02-42.133 1.342-1.243 1.265-1.33-.169-.193l-.415.328-.008.005s-47.758 34.238-44.713 36.01" fill="#78C2D0"/><path d="M286.342 92.077l.177 2.478c.237 3.213.48 6.533.564 9.87l-.877.02c-.082-3.313-.324-6.624-.558-9.825l-.178-2.483.872-.06" fill="#2879FF"/><path d="M286.397 164.26l.153 2.475c.211 3.218.425 6.541.48 9.878l-.876.015c-.055-3.317-.27-6.631-.473-9.835l-.158-2.48.874-.054" fill="#2489A6"/><path d="M327.668 132.646l-2.466.278c-3.2.365-6.505.74-9.835.957l-.055-.873c3.307-.218 6.605-.593 9.792-.954l2.466-.278.098.87m-72.64.432l-2.478.104c-3.217.144-6.542.285-9.876.272l.004-.875c3.313.014 6.63-.133 9.834-.268l2.48-.108.036.875m17.01-29.937l-1.74-6.417.739-.2 1.739 6.417-.738.2m-10.392 7.852l-4.681-4.72.543-.538 4.68 4.72-.542.538m-7.186 9.627l-6.45-1.6.186-.744 6.447 1.602-.183.743m-5.597 26.478l-.198-.742 6.416-1.725.198.74-6.416 1.727m9.505 13.366l-.536-.546 4.728-4.67.538.545-4.73 4.671m12.714 8.996l-.745-.188 1.618-6.447.743.185-1.616 6.45m28.328.006l-1.74-6.417.74-.201 1.738 6.418-.738.2m13.528-9.21l-4.68-4.723.543-.536 4.68 4.72-.543.539m9.312-12.542l-6.446-1.603.182-.742 6.45 1.6-.185.745m-6.887-26.357l-.198-.738 6.417-1.726.2.74-6.419 1.724m-7.477-10.616l-.538-.544 4.73-4.672.535.545-4.727 4.67m-9.397-7.575l-.743-.185 1.618-6.45.743.184-1.618 6.451" fill="#2879FF"/><path d="M285.428 129.108a4.745 4.745 0 0 0-4.743 4.748 4.745 4.745 0 0 0 4.743 4.746 4.744 4.744 0 0 0 4.742-4.746 4.744 4.744 0 0 0-4.742-4.748" fill="#F57C02"/><path d="M287.594 133.73a1.886 1.886 0 0 1-3.77 0 1.885 1.885 0 1 1 3.77 0" fill="#2879FF"/><path fill="#78C2D0" d="M269.881 71.413l1.415-6.554 29.713.893v5.661z"/><path d="M314.274 51.506c-7.912-20.648 23.045-3.187 23.045-3.187s3.088-35.449 15.305-14.528c11.956 20.496-1.268 49.373-1.268 49.373s-29.328-11.424-37.082-31.658" fill="#FC5D16"/><path d="M349.662 58.882c-2.892.23-6.11.404-9.834.535l-.005.002c-3.035.104-6.014.165-8.27.208l-.115.001.01.525.119-.005a540.44 540.44 0 0 0 8.29-.204c3.728-.134 6.943-.31 9.837-.54l.12-.007-.041-.526-.111.011m.159 4.681c-2.89.233-6.107.407-9.828.535l-.006.002c-3.037.107-6.017.168-8.273.211h-.11l.007.524h.116c2.27-.044 5.26-.105 8.295-.209 3.724-.131 6.942-.307 9.833-.537l.12-.01-.041-.522-.113.006m-18.4-8.023c2.889-.23 6.095-.402 9.813-.532a491.78 491.78 0 0 1 8.295-.21l.117-.004-.012-.524-.117.001c-2.283.041-5.29.105-8.3.212-3.725.126-6.941.305-9.825.535l-.121.007.042.526.108-.01" fill="#FFFFFE"/><path d="M371.709 120.406c.562-1.138 1.483-1.138 2.044 0l4.241 8.604c.562 1.14 2.05 2.222 3.309 2.405l9.481 1.379c1.259.183 1.544 1.058.634 1.947l-6.863 6.694c-.91.888-1.48 2.64-1.263 3.893l1.621 9.454c.212 1.254-.533 1.795-1.653 1.203l-8.485-4.464c-1.126-.591-2.965-.591-4.088 0l-8.485 4.464c-1.124.592-1.868.05-1.652-1.203l1.619-9.454c.213-1.253-.352-3.005-1.263-3.893l-6.863-6.694c-.909-.89-.625-1.764.631-1.947l9.486-1.379c1.257-.183 2.744-1.265 3.307-2.405l4.242-8.604" fill="#FFB839"/><path d="M378.798 142.482c-1.785-.89-3.73-1.951-5.943-3.239h-.004a253.682 253.682 0 0 1-4.872-2.93l-.067-.041-.268.449.07.041a257.41 257.41 0 0 0 4.883 2.941c2.215 1.287 4.16 2.346 5.947 3.235l.073.04.251-.464-.07-.032m-2.354 4.047c-1.787-.887-3.73-1.947-5.942-3.236l-.003-.002a240.068 240.068 0 0 1-4.877-2.928l-.062-.04-.27.447.067.045c1.328.814 3.084 1.887 4.886 2.938 2.213 1.287 4.16 2.348 5.945 3.237l.073.037.249-.46-.066-.038m-6.404-13.745c1.783.887 3.72 1.946 5.93 3.232a235.39 235.39 0 0 1 4.887 2.94l.069.038.266-.45-.068-.044a226.73 226.73 0 0 0-4.89-2.938 101.631 101.631 0 0 0-5.938-3.235l-.074-.04-.252.463.07.034" fill="#FFFFFE"/><use fill="#E1E4E6" xlink:href="#e" transform="translate(156.034 312.95)"/><path d="M218.03 248.915c-3.433 1.738-7.637.355-9.373-3.078-1.739-3.438-.36-7.65 3.072-9.388 3.438-1.74 7.644-.356 9.383 3.08 1.734 3.437.356 7.65-3.083 9.386m3.823 7.561c7.604-3.846 11.323-13.538 6.81-20.769-49.163-78.8-64.604-113.884-64.604-113.884s-.285-10.591-.456-13.747c-.179-3.296-3.406-9.678-5.953-11.777-2.607-2.147-12.989-3.66-12.989-3.66l7.952 15.736-8.936 4.527-7.956-15.738s-4.936 9.273-4.75 12.643c.175 3.295 3.403 9.68 5.948 11.778 2.442 2.012 7.144 4.544 7.144 4.544s36.884 82.342 54.133 120.161c6.432 14.104 16.061 14.032 23.657 10.186" fill="#78C2D0"/><path d="M135.843 105.4c-.79 1.964-1.284 3.548-1.273 4.216.123 2.304 2.856 7.715 4.64 9.184 1.773 1.46 5.336 3.49 6.561 4.152l1.078.58.502 1.124c.368.822 37.076 82.76 54.124 120.137 3.002 6.588 6.869 10.043 11.486 10.267v.002c2.241.109 4.682-.498 7.263-1.805 2.086-1.055 3.852-2.727 5.06-4.722a12.225 12.225 0 0 0 1.324-3.036c.776-2.797.422-5.597-1.004-7.88-48.736-78.118-64.688-113.99-64.843-114.341l-.287-.648-.019-.711c-.002-.103-.286-10.575-.453-13.648-.125-2.308-2.86-7.717-4.645-9.185-.53-.408-2.097-.943-4.142-1.472l3.958 12.093-10.779 6.256-8.551-10.562m.185 1.183l7.9 9.758.324.4.444-.258 10.778-6.258.422-.243-.152-.465-3.611-11.03c1.684.478 2.576.858 2.843 1.064 1.662 1.367 4.308 6.6 4.425 8.751.166 3.046.45 13.535.453 13.634l.018.71.003.119.05.107.282.648c.158.35 16.048 36.131 64.889 114.417 1.333 2.137 1.665 4.766.932 7.4-.281.998-.703 1.97-1.258 2.884-1.16 1.917-2.872 3.513-4.816 4.497-2.448 1.24-4.754 1.827-6.86 1.746l-.103-.005c-4.377-.214-8.065-3.549-10.97-9.919-17-37.272-53.777-119.364-54.122-120.133l-.502-1.122-.083-.186-.18-.097-1.077-.58c-1.213-.655-4.734-2.663-6.465-4.088-1.662-1.368-4.308-6.604-4.42-8.729-.007-.364.222-1.336.856-3.022" fill="#FFFFFE"/><path d="M95.759 99.309c-7.877-3.208-62.18-5.334-63.908 6.675-2.787 19.38-5.607 32.886 9.087 38.7 9.445 3.738 30.202 2.748 43.568 1.502l10.716 7.973-.254-9.177a31.684 31.684 0 0 0 1.323-.218c14.608-2.783 22.883-46.252-.532-45.908-.174.004 0 .453 0 .453z" fill="#799921"/><path d="M59.951 113.609c-.177-.321-.402-.389-.558-.389a.564.564 0 0 0-.42.193c-.099.096-.195.249-.323.51-.1.202-.206.443-.317.718a6.621 6.621 0 0 0-.507.784c-.148.265-.274.482-.38.645a4.577 4.577 0 0 0-.387.466 5.642 5.642 0 0 0-.276.405 2.17 2.17 0 0 0-.44.474 4.7 4.7 0 0 1-.47.549l-.051.063c-.07.107-.218.304-.551.658l-.056.092-.018.065c-.001.003-.022.077-.158.3-.064.065-.154.159-.27.283-.072.076-.135.15-.188.22.006-.091.01-.178.01-.26 0-.081.002-.271.007-.573.006-.304.016-.678.03-1.123.016-.449.033-.95.048-1.5a62.52 62.52 0 0 0 .023-1.693c.03-1.02.051-1.809.06-2.364.012-.558.013-.972.008-1.23-.007-.37-.037-.537-.119-.66a.513.513 0 0 0-.487-.24l-.068.012c-.56.151-.631.926-.631 1.584v2.657c0 .513-.008 1.035-.024 1.553a47.6 47.6 0 0 1-.06 1.472l-.069 1.244c-.02.353-.044.62-.078.861 0 .38-.02.742-.058 1.077a7.22 7.22 0 0 0-.066.74c0 .11-.015.57-.046 1.368a30.91 30.91 0 0 0 .046 2.847l.004 4.06a11.9 11.9 0 0 0-.111 1.421v1.383l.035.368h.108l.15.234h.226c.093 0 .193-.022.529-.158l.108-.075.047-.084c.077-.137.137-.289.181-.452.038-.136.062-.364-.024-.987v-7.84c0-.409.006-.73.022-.952.012-.183.027-.28.03-.323a.625.625 0 0 0 .225-.144c.119-.119.186-.273.18-.393 0 0 .008-.024.04-.076a.788.788 0 0 1 .222-.19c.142-.077.276-.174.398-.288a.925.925 0 0 0 .196-.246l.09.181c.007.12.03.24.071.354.029.082.032.115.032.115 0 .056.008.188.064.777.04.417.06.89.063 1.437.06.517.114.989.16 1.415.054.495.067.65.067.743l.03.1.079.077v.392l.11.128c.009.093.012.191.012.29v.825l.015.097.033.059c.034.058.082.17.136.364.046.173.1.322.157.445.006.171.025.375.057.607.033.24.05.467.05.672 0 .29.005.546.015.76.012.22.046.384.113.51.008.11.03.233.058.366.03.13.045.266.045.41 0 .152.03.32.087.502.071.214.156.36.314.507a.96.96 0 0 0 .548.192l.076-.003c.218-.02.432-.186.45-.53.004-.112.007-.258.007-.438 0-.21-.028-.414-.084-.606a2.507 2.507 0 0 0-.15-.395 6.264 6.264 0 0 0-.054-.504 4.847 4.847 0 0 1-.05-.664c0-.248-.026-.512-.076-.788a4.685 4.685 0 0 0-.157-.64 2.115 2.115 0 0 0-.074-.43 1.148 1.148 0 0 1-.048-.294 2.67 2.67 0 0 0-.06-.46 3.153 3.153 0 0 1-.048-.564 3.5 3.5 0 0 0-.077-.68 1.685 1.685 0 0 0-.159-.486 4.47 4.47 0 0 0-.055-.418 3.414 3.414 0 0 1-.048-.584 6.81 6.81 0 0 0-.074-.97 13.05 13.05 0 0 0-.157-.905 5.04 5.04 0 0 0-.066-.737 3.805 3.805 0 0 1-.056-.579 2.44 2.44 0 0 0-.081-.548 2.222 2.222 0 0 0-.199-.555 1.924 1.924 0 0 1-.134-.315 1.098 1.098 0 0 1-.049-.187c0-.067-.003-.147-.009-.236a.555.555 0 0 0-.112-.308 6.344 6.344 0 0 1 .843-1.019l.037-.05c.169-.273.349-.54.541-.794.201-.265.362-.49.445-.625a5 5 0 0 0 .505-.648c.195-.281.38-.535.59-.817.113-.224.219-.436.318-.637.155-.316.186-.449.186-.56v-.262l-.015-.096-.034-.06m11.621 18.735l-.094-.035h-.068c-.11 0-.212.007-.3.02a1.105 1.105 0 0 0-.376.14c-.002.001-.07.031-.302.037-.227.005-.563.008-1.008.008-.424 0-.742-.02-.947-.057a3.737 3.737 0 0 1-.543-.135 8.638 8.638 0 0 0-.646-.147c-.338-.065-.76-.069-1.207-.073l-.39-.005a1.9 1.9 0 0 1-.554-.076l-.08-.01a1.55 1.55 0 0 1-.38-.051 3.461 3.461 0 0 1-.137-.038c-.029-.042-.099-.16-.197-.454-.026-.08-.058-.242-.064-.563a49.599 49.599 0 0 1-.007-.817c0-.097.009-.301.05-.712.038-.357.056-.7.056-1.016 0-.341.015-.697.046-1.058.03-.38.046-.679.046-.89 0-.171.015-.334.045-.485a2.15 2.15 0 0 0 .061-.427c0-.078.016-.2.041-.367.035-.216.051-.435.051-.653v-1.226l-.016-.107.12-.044c.003 0 .052-.028.209-.028.129 0 .253.02.415.07l.082.008c.073 0 .219.007.44.016a34.627 34.627 0 0 0 1.491.031h.37c.125 0 .288-.013.42-.121a.872.872 0 0 0 .189-.252c.085-.114.143-.271.173-.492l.035-.44h-.434c-.042 0-.17-.004-.388-.01l-.824-.015c-.308-.006-.62-.013-.934-.024-.843-.027-1.206-.017-1.426-.024.007-.086.016-.206.032-.37.031-.37.046-.794.046-1.261 0-.444.036-1.016.11-1.72a.931.931 0 0 0 .089-.417c0-.087.018-.334.051-.734.037-.427.055-.905.055-1.42 0-.551.017-1.144.046-1.76a30.92 30.92 0 0 0 .046-1.49c0-.4.006-.737.015-1.002.103.013.193.03.267.05a6.2 6.2 0 0 0 .638.167c.225.048.412.097.52.133.097.044.249.085.49.135.209.042.436.086.685.128l.716.12.486.076c.377.103.529.154.61.193.016.08.054.17.135.253l.128.115.225-.012c.135-.027.226-.104.469-.354.233-.24.304-.342.344-.412a.512.512 0 0 0 .052-.383.534.534 0 0 0-.177-.27c-.124-.163-.339-.22-.536-.26a3.86 3.86 0 0 0-.712-.068 30.36 30.36 0 0 1-.648-.148c-.176-.042-.236-.068-.231-.063l-.164-.104h-.101c-.031 0-.1-.006-.213-.015-.13-.01-.274-.022-.435-.039l-.479-.047c-.372-.037-.498-.017-.693-.061v-.168l-.371.001-.063-.023a.922.922 0 0 0-.294-.085l-.035-.029a2.169 2.169 0 0 0-.725-.396 1.342 1.342 0 0 0-.401-.081c-.064 0-.121.005-.164.01a.458.458 0 0 0-.38.31.772.772 0 0 0-.119.33 2.31 2.31 0 0 0-.018.255c0 .037-.007.226-.044.92a38.822 38.822 0 0 0-.047 2.034c0 .804-.018 1.536-.053 2.176a30.164 30.164 0 0 0-.053 1.295c0 .136-.02.334-.058.573-.037.252-.08.473-.135.694l-.006.07c0 .19-.016.5-.045.92-.031.445-.048.854-.048 1.216v3.581c0 .236-.016.506-.05.802-.035.302-.053.56-.056.765a8.076 8.076 0 0 0-.136.996c-.041.464-.063.94-.063 1.412 0 .394-.015.788-.044 1.17-.033.411-.048.661-.048.762 0 .175.017.44.056.812.035.347.078.63.129.842.001.248.018.494.048.733.027.211.042.358.042.441 0 .11.007.218.018.323.025.216.135.38.301.45.101.07.213.108.329.108.157 0 .299-.066.442-.216a1.418 1.418 0 0 0 .247-.467h.048c.076 0 .218.019.42.05.298.048.61.057.913.067.23.007.463.013.685.038.296.033.551.05.761.05.13 0 .32.019.567.057.257.041.506.087.76.141.239.041.445.08.62.115.256.054.375.042.49-.012.06-.009.148-.023.28-.05.158-.032.347-.048.559-.048l.202.002c.438 0 .811-.023.946-.305a.717.717 0 0 0 .137-.397.857.857 0 0 0-.059-.307c-.055-.141-.167-.259-.37-.375m9.79-22.114c-.333 0-.51.345-.595.51l-.337.647a24.88 24.88 0 0 1-.349.648c-.106.194-.177.234-.222.256l-.098.076-.04.08c-.062.124-.12.24-.171.35-.065.136-.1.25-.112.355l-.034.041c-.082.09-.151.164-.208.221a.954.954 0 0 1-.157.123.632.632 0 0 0-.297.383c-.181.36-.329.65-.423.836-.1.147-.219.353-.36.624a3.103 3.103 0 0 0-.232-.533 9.97 9.97 0 0 0-.422-1.042 5.303 5.303 0 0 0-.714-1.074 6.603 6.603 0 0 1-.543-.829 53.15 53.15 0 0 1-.5-.903 7.183 7.183 0 0 1-.32-.523c-.132-.234-.304-.475-.588-.475-.1 0-.195.014-.281.039-.134.04-.358.167-.358.581 0 .074.01.196.034.372.026.198.11.407.249.624a2.838 2.838 0 0 0 .456.838.999.999 0 0 0 .213.33c.103.11.217.231.346.358.047.046.11.131.19.247.067.1.125.193.173.282.012.14.047.272.103.392a.716.716 0 0 0 .181.243c.037.105.097.246.186.44.13.283.256.6.399 1.001.168.325.277.6.327.814l.022.118-.008.019c-.104.244-.154.448-.154.626 0 .126.04.263.122.418.04.078.086.15.135.213.008.07.022.17.047.318.033.192.048.428.048.7 0 .24.022.723.063 1.434.04.697.06 1.4.06 2.093 0 .36.005.752.016 1.177.009.425.023.847.038 1.266.016.417.03.815.047 1.191.014.37.022.689.022.947 0 .59.02 1.26.062 1.99.04.723.06 1.321.06 1.781 0 .683.025 1.125.078 1.389.063.323.145.521.3.676l.114.072.17.011c.246 0 .443-.115.536-.313.075-.099.142-.23.199-.398.064-.192.096-.401.096-.61.022-.49-.02-.869-.126-1.154-.005-.091-.02-.282-.06-.708-.04-.43-.059-.995-.059-1.683 0-.642-.003-1.319-.008-2.034-.006-.732-.04-1.286-.1-1.6 0-.408-.021-1.036-.061-1.866a46.489 46.489 0 0 1-.062-2.364v-1.542c0-.383.003-.68.008-.89.006-.258.022-.341.022-.367.076-.081.186-.22.34-.429.151-.205.317-.423.515-.677a9.41 9.41 0 0 0 .402-.662c.128-.23.204-.416.233-.578a4.12 4.12 0 0 0 .281-.507c.146-.295.285-.6.381-.844a9.08 9.08 0 0 0 .546-1.031c.16-.351.301-.646.4-.837.143-.216.276-.52.409-.965l.009-.075a.621.621 0 0 0-.19-.446.633.633 0 0 0-.449-.191" fill="#FFFFFE"/><path d="M275.01 291.776c-10.23-11.11-9.524-28.41 1.577-38.648 11.1-10.239 28.385-9.537 38.617 1.573 10.229 11.109 9.522 28.411-1.58 38.652-11.1 10.238-28.392 9.528-38.614-1.577zm-19.277 2.328c-1.374 2.969-7.696 5.337-9.068 8.304l12.259 15.302c3.075-1.132 9.188-5.721 12.268-6.852a43.724 43.724 0 0 0 10.813 4.982 7420.58 7420.58 0 0 0 3.38 9.23l16.593.72c1.38-2.98 1.422-6.053 2.797-9.03a44.002 44.002 0 0 0 11.183-4.118c2.963 1.376 9.96 5.496 12.928 6.863l7.194-13.092c-1.131-3.08-2.256-6.159-3.393-9.238a44.084 44.084 0 0 0 4.993-10.827c3.07-1.127 8.762 1.07 11.838-.06l.897-17.955c-2.978-1.385-8.856-3.397-11.826-4.774a44.228 44.228 0 0 0-4.114-11.194c1.38-2.962 5.59-8.89 6.97-11.862l-13.197-9.179c-3.075 1.132-6.155 3.163-9.23 4.29a44.186 44.186 0 0 0-10.812-4.987c-1.129-3.073-1.958-7.042-3.087-10.115l-16.596-3.35c-1.38 2.976-1.71 9.583-3.089 12.562a43.797 43.797 0 0 0-11.181 4.113c-2.967-1.379-7.877-5.424-10.846-6.8l-9.275 13.03a4631.61 4631.61 0 0 1 3.382 9.234 44.523 44.523 0 0 0-4.985 10.828c-3.07 1.13-8.471-1.009-11.545.124l1.708 18.53c2.977 1.38 5.957 2.758 8.933 4.137a44.23 44.23 0 0 0 4.108 11.184z" fill="#2879FF"/><path d="M291.45 239.89c-16.437 0-29.553 14.819-29.553 31.269 0 16.453 7.599 33.805 34.62 35.496 16.405 1.025 32.087-16.51 32.087-32.96 0-26.198-20.716-33.804-37.153-33.804zm3.651 65.656c-17.799 0-32.277-14.494-32.277-32.308s14.478-32.306 32.277-32.306c17.8 0 32.28 14.492 32.28 32.306 0 17.814-14.48 32.308-32.28 32.308z" fill="#FFFFFE"/><path fill="#FC5D16" d="M97.524 211.052H367.99v-46.805H97.524z"/><path d="M106.263 201.45c14.824.044 174.672.544 206.024 1.212l.036 1.214v-1.214c.448 0 .783-.176 1.09-.567 2.796-3.581.26-19.6-2.114-29.488-6.656-.232-48.628-1.61-98.464-1.61-42.826 0-79.637.99-109.431 2.947l2.86 27.506m206.06 3.641l-.09-.003c-32.693-.694-205.327-1.208-207.068-1.214l-1.09-.002-3.347-32.182 1.257-.082c30.064-2.021 67.362-3.038 110.85-3.038 54.142 0 99.021 1.626 99.47 1.642l.911.035.222.885c.675 2.71 6.44 26.629 1.885 32.46-.766.978-1.804 1.5-3 1.5m28.39-18.612a5.312 5.312 0 0 1-7.413-1.175c-1.713-2.371-1.195-5.7 1.178-7.422 2.368-1.72 5.69-1.189 7.415 1.18a5.324 5.324 0 0 1-1.18 7.418zm2.867-8.644c-2.398-3.302-7.032-4.042-10.33-1.644-3.303 2.4-4.035 7.037-1.641 10.342 2.24 3.08 6.946 4.096 10.18 2.244l6.94 9.73 1.69-1.226-7.708-9.198c2.444-2.533 3.005-7.303.869-10.248z" fill="#FFFFFE"/><path d="M150.652 278.396c-6.547 1.476-3.602-.334-10.134-.115-8.88.297-22.725 8.404-31.454 9.944-4.734-17.145.17-15.657-10.241-29.032-7.184-9.227-11.421-9.629-11.399 4.318.014 8.89.31 7.589.294 15.719-.01 5.825.003 11.516.084 17.163.27 18.737 1.293 36.952 4.706 57.822 0 0 61.83.948 76.207-13.19 5.778-5.679-12.801-45.787-18.063-62.629" fill="#F7D0C2"/><path d="M118.782 293.29c-.132 1.9.243 5.428-.365 7.29-.605 1.86-1.563 3.677-3.06 5.242-1.483 1.57-3.578 3.665-5.803 4.586-2.225.929-7.532.25-7.532.25 2.408-.59 5.283.135 7.412-.854 2.127-.982 4.005-2.732 5.325-4.284 1.335-1.545 2.14-3.315 2.61-5.125.47-1.818.724-6.317.737-8.188l.676 1.083" fill="#B99765"/><path fill="#799921" d="M92.593 354.944H.05v-68.643h85.934l6.61 68.643"/><path d="M78.088 286.964c.682 9.154 2.354 20.17 3.854 31.302 1.5 11.13 2.827 22.375 2.827 31.956a91.74 91.74 0 0 1-.071 3.678l.918.037c.049-1.208.072-2.448.072-3.715 0-9.664-1.335-20.938-2.836-32.08-1.501-11.14-3.17-22.147-3.847-31.247l-.917.069" fill="#FFFFFE"/><g transform="translate(147.306 210.881)"><mask id="g" fill="#fff"><use xlink:href="#f"/></mask><path fill="#C9E7E6" mask="url(#g)" d="M66.524-36.27L-14.542 8.378l13.734 24.98L80.26-11.288"/><path fill="#C8E6E6" mask="url(#g)" d="M80.26-11.29L-.809 33.36l.467.848L80.726-10.44"/><path fill="#C7E6E6" mask="url(#g)" d="M80.726-10.44L-.341 34.207l.467.85L81.193-9.592"/><path fill="#C6E5E5" mask="url(#g)" d="M81.193-9.592L.126 35.057l.467.848L81.659-8.743"/><path fill="#C5E5E5" mask="url(#g)" d="M81.66-8.743L.592 35.905l.466.849L82.126-7.894"/><path fill="#C4E4E4" mask="url(#g)" d="M82.126-7.894L1.06 36.754l.467.85 81.067-44.65"/><path fill="#C3E4E3" mask="url(#g)" d="M82.593-7.045L1.526 37.603l.467.849L83.06-6.196"/><path fill="#C2E3E3" mask="url(#g)" d="M83.06-6.196L1.993 38.452l.466.849L83.526-5.347"/><path fill="#C1E3E3" mask="url(#g)" d="M83.526-5.347L2.46 39.3l.467.849L83.993-4.498"/><path fill="#C0E3E2" mask="url(#g)" d="M83.993-4.498L2.926 40.15l.934 1.697L84.926-2.8"/><path fill="#BFE2E1" mask="url(#g)" d="M84.926-2.8L3.86 41.847l.466.85L85.393-1.952"/><path fill="#BEE2E1" mask="url(#g)" d="M85.393-1.952L4.326 42.697l.467.848L85.86-1.103"/><path fill="#BDE1E1" mask="url(#g)" d="M85.86-1.103L4.793 43.545l.467.849L86.327-.254"/><path fill="#BCE1E0" mask="url(#g)" d="M86.327-.254L5.26 44.394l.467.85L86.793.593"/><path fill="#BBE0DF" mask="url(#g)" d="M86.793.595L5.727 45.243l.933 1.698L87.727 2.293"/><path fill="#BAE0DF" mask="url(#g)" d="M87.727 2.293L6.66 46.94l.467.848L88.194 3.142"/><path fill="#B9DFDF" mask="url(#g)" d="M88.194 3.142L7.127 47.789l.466.85L88.66 3.99"/><path fill="#B8DFDE" mask="url(#g)" d="M88.66 3.99L7.593 48.64l.467.848L89.127 4.84"/><path fill="#B7DEDE" mask="url(#g)" d="M89.127 4.84L8.06 49.487l.467.85 81.067-44.65"/><path fill="#B5DEDD" mask="url(#g)" d="M89.594 5.688L8.527 50.336l.933 1.698L90.527 7.386"/><path fill="#B4DEDC" mask="url(#g)" d="M90.527 7.386L9.46 52.034l.467.849L90.994 8.235"/><path fill="#B4DDDC" mask="url(#g)" d="M90.994 8.235L9.927 52.883l.467.849L91.46 9.084"/><path fill="#B3DDDC" mask="url(#g)" d="M91.46 9.084L10.395 53.732l.467.849L91.927 9.932"/><path fill="#B1DCDC" mask="url(#g)" d="M91.927 9.932L10.861 54.581l.466.848 81.067-44.647"/><path fill="#B0DCDB" mask="url(#g)" d="M92.394 10.782L11.327 55.429l.934 1.698L93.328 12.48"/><path fill="#AFDBDB" mask="url(#g)" d="M93.328 12.48L12.26 57.126l.466.85 81.067-44.649"/><path fill="#AEDBDB" mask="url(#g)" d="M93.794 13.328L12.727 57.976l.467.849 81.067-44.648"/><path fill="#ADDBDA" mask="url(#g)" d="M94.261 14.177L13.194 58.825l.467.849 81.067-44.648"/><path fill="#ACDADA" mask="url(#g)" d="M94.728 15.026L13.66 59.674l.7 1.273L95.428 16.3"/><path fill="#ABDAD9" mask="url(#g)" d="M95.428 16.3L14.36 60.946l.467.85 81.067-44.649"/><path fill="#AAD9D9" mask="url(#g)" d="M95.895 17.148L14.828 61.796l.466.85 81.067-44.65"/><path fill="#A9D9D9" mask="url(#g)" d="M96.361 17.997L15.294 62.645l.934 1.698 81.067-44.648"/><path fill="#A8D8D8" mask="url(#g)" d="M97.295 19.695L16.228 64.343l.467.849L97.76 20.543"/><path fill="#A7D8D7" mask="url(#g)" d="M97.761 20.543L16.695 65.192l.466.848 81.067-44.647"/><path fill="#A6D8D7" mask="url(#g)" d="M98.228 21.393L17.161 66.04l.934 1.698L99.162 23.09"/><path fill="#A5D7D6" mask="url(#g)" d="M99.162 23.09L18.095 67.738l.467.85 81.066-44.649"/><path fill="#A3D7D6" mask="url(#g)" d="M99.628 23.94L18.562 68.586l.466.849 81.067-44.648"/><path fill="#A2D6D6" mask="url(#g)" d="M100.095 24.788L19.028 69.436l.466.85 81.068-44.65"/><path fill="#A1D6D6" mask="url(#g)" d="M100.562 25.637L19.494 70.285l.467.849 81.068-44.648"/><path fill="#A0D5D5" mask="url(#g)" d="M101.029 26.486L19.96 71.134l.467.849 81.067-44.648"/><path fill="#9FD5D5" mask="url(#g)" d="M101.495 27.335L20.428 71.983l.467.849 81.067-44.649"/><path fill="#9ED5D4" mask="url(#g)" d="M101.962 28.183L20.895 72.832l.933 1.697 81.067-44.648"/><path fill="#9DD4D4" mask="url(#g)" d="M102.895 29.881L21.828 74.53l.467.85 81.067-44.649"/><path fill="#9BD4D3" mask="url(#g)" d="M103.362 30.73L22.295 75.378l.467.85 81.067-44.65"/><path fill="#9AD3D2" mask="url(#g)" d="M103.829 31.579L22.762 76.227l.933 1.698 81.067-44.648"/><path fill="#99D3D2" mask="url(#g)" d="M104.762 33.277L23.695 77.925l.467.849 81.067-44.648"/><path fill="#98D3D2" mask="url(#g)" d="M105.229 34.126L24.162 78.774l.466.849 81.068-44.648"/><path fill="#97D2D1" mask="url(#g)" d="M105.696 34.975L24.628 79.623l.467.848 81.067-44.648"/></g><path d="M197.81 245.444c-4.311-9.457-9.785-21.55-15.58-34.392h3.955c5.686 12.596 11.02 24.379 15.193 33.529-1.179.335-2.37.623-3.568.863m4.152-1.033a9974.971 9974.971 0 0 1-15.116-33.36h21.743a2083.41 2083.41 0 0 0 13.15 21.49 46.835 46.835 0 0 1-4.134 3.713 7.024 7.024 0 0 0-2.736-.557 6.94 6.94 0 0 0-3.14.752 6.986 6.986 0 0 0-3.805 5.731 46.548 46.548 0 0 1-5.962 2.23m20.21-12.31a2090.446 2090.446 0 0 1-12.881-21.048h4.21c3.498 5.777 7.22 11.858 11.17 18.237a46.78 46.78 0 0 1-2.499 2.81" fill="#67B4C2"/><path d="M201.378 244.581c-4.173-9.15-9.507-20.933-15.193-33.53h.661a9974.971 9974.971 0 0 0 15.116 33.36 56.06 56.06 0 0 1-.584.17m20.362-12.04a2091.749 2091.749 0 0 1-13.151-21.49h.702a2090.446 2090.446 0 0 0 12.881 21.048c-.144.15-.287.296-.432.443" fill="#E7F3EE"/><g transform="translate(182.219 154.79)"><mask id="i" fill="#fff"><use xlink:href="#h"/></mask><path fill="#C9E7E6" mask="url(#i)" d="M28.31-15.403L-3.8 2.282l29.135 52.99 32.11-17.685"/></g><path d="M186.17 164.247h-4.11c-1.082-1.947-2.117-3.82-3.107-5.624a50.865 50.865 0 0 1 3.411-1.241c1.2 2.182 2.47 4.473 3.806 6.865m-4.8 0h-12.687a50.25 50.25 0 0 1 9.707-5.392c.95 1.732 1.943 3.528 2.98 5.392" fill="#67B4C2"/><path d="M182.06 164.247h-.69a1110.76 1110.76 0 0 1-2.98-5.392c.186-.078.376-.156.563-.232.99 1.804 2.025 3.677 3.108 5.624" fill="#E7F3EE"/><path d="M233.866 211.052h-86.2a50.295 50.295 0 0 1-.28-7.033c25.05.093 57.677.228 87.643.394a46.837 46.837 0 0 1-1.163 6.639m1.346-9.067c-29.975-.166-62.609-.301-87.694-.394.884-11.234 5.513-21.799 12.95-30.034 16.263-.373 33.748-.56 52.367-.56 4.286 0 8.511.01 12.664.029 6.969 8.983 10.254 20.023 9.713 30.96m-72.343-32.912a50.32 50.32 0 0 1 5.814-4.827h50.375l.266.231a47.196 47.196 0 0 1 4.149 4.112c-3.497-.014-7.05-.02-10.638-.02-17.704 0-34.385.168-49.966.504" fill="#DA5519"/><path d="M235.029 204.413c-29.966-.166-62.594-.301-87.643-.394a50.7 50.7 0 0 1 .132-2.428c25.085.093 57.72.228 87.694.394-.04.81-.101 1.62-.183 2.428m-74.56-32.856a50.514 50.514 0 0 1 2.4-2.483c15.581-.336 32.262-.504 49.966-.504 3.589 0 7.14.006 10.638.02a46.773 46.773 0 0 1 2.026 2.436 2790.43 2790.43 0 0 0-12.664-.03c-18.619 0-36.104.188-52.367.56" fill="#E7F3EE"/><path fill="#FFB839" d="M131.709 279.255l19.285 10.739 15.872-39.927-9.865-5.498-25.292 34.686"/><path fill="#2879FF" d="M91.046 399.87l60.328-111.006-18.908-10.525L72.14 389.346zm62.404-230.99c16.982-19.418 46.467-21.388 65.874-4.402 19.404 16.989 21.371 46.508 4.4 65.93-16.974 19.413-46.464 21.388-65.869 4.398-19.4-16.993-21.374-46.508-4.406-65.926m-19.44 46.014c8.416 30.172 39.678 47.797 69.82 39.376 30.141-8.42 47.762-39.714 39.343-69.884-8.418-30.166-39.684-47.795-69.82-39.37-30.152 8.423-47.762 39.712-39.343 69.878"/><path d="M168.683 164.247h-2.907l-1.909-4.25a46.484 46.484 0 0 1 12.215-5.37c.74 1.362 1.51 2.772 2.308 4.228a50.25 50.25 0 0 0-9.707 5.392m-3.567 0h-3.951l-.817-1.818a46.59 46.59 0 0 1 3.005-2.106l1.763 3.924m13.837-5.624a952.605 952.605 0 0 1-2.27-4.16 47.093 47.093 0 0 1 3.645-.804 1108.1 1108.1 0 0 0 2.036 3.723c-1.16.376-2.297.79-3.411 1.241" fill="#4E9BA9"/><path d="M165.776 164.247h-.66l-1.763-3.924c.171-.11.341-.218.514-.326l1.91 4.25m12.613-5.392a998.793 998.793 0 0 1-2.308-4.229c.2-.056.4-.11.6-.162a952.714 952.714 0 0 0 2.27 4.16c-.186.075-.376.153-.562.23" fill="#D1DFD4"/><path d="M147.666 211.052h-4.346a47.047 47.047 0 0 1-1.207-7.053l5.273.02c-.07 2.326.02 4.674.28 7.033m-.148-9.461l-5.569-.021c-.432-10.387 2.576-20.929 9.15-29.774 3.077-.087 6.198-.167 9.37-.24-7.438 8.236-12.067 18.801-12.951 30.035m5.56-32.28c.122-.144.247-.287.371-.43a47.225 47.225 0 0 1 4.659-4.634h10.575a50.32 50.32 0 0 0-5.814 4.827c-3.315.072-6.576.151-9.792.238" fill="#B45022"/><path d="M147.386 204.019l-5.273-.02a47.705 47.705 0 0 1-.164-2.429l5.569.02a50.7 50.7 0 0 0-.132 2.429m3.712-32.223a47.131 47.131 0 0 1 1.98-2.484c3.215-.087 6.476-.166 9.791-.238-.83.801-1.63 1.63-2.4 2.483-3.172.072-6.293.152-9.37.239" fill="#D1DFD4"/><path d="M169.248 247.26c-13.218-5.952-23.802-17.516-28.006-32.582-7.518-26.95 8.213-54.886 35.135-62.416a50.666 50.666 0 0 1 13.632-1.875c10.395 0 20.392 3.229 28.72 8.977a50.544 50.544 0 0 0-15.931-4.236 46.681 46.681 0 0 0-14.191-2.205 46.91 46.91 0 0 0-12.525 1.703 46.484 46.484 0 0 0-15.734 7.803 47.225 47.225 0 0 0-9.25 9.367c-6.573 8.845-9.581 19.387-9.149 29.774a47.047 47.047 0 0 0 1.37 9.482 46.483 46.483 0 0 0 11.283 20.618 50.546 50.546 0 0 0 14.646 15.59" fill="#1C71A4"/><path d="M175.2 151.662c-26.43 7.394-41.932 34.923-34.55 61.377 3.606 12.92 12.039 23.62 23.743 30.14 11.528 6.418 24.877 7.997 37.587 4.443 12.8-3.578 23.446-11.932 29.972-23.524 6.531-11.595 8.155-25.04 4.579-37.853-3.603-12.915-12.037-23.614-23.741-30.133-11.53-6.42-24.878-7.999-37.59-4.45zm-36.165 61.835c-7.627-27.354 8.393-55.814 35.715-63.45 13.14-3.67 26.934-2.04 38.852 4.594 12.104 6.74 20.821 17.803 24.543 31.154 3.696 13.244 2.016 27.143-4.728 39.126-6.746 11.986-17.752 20.619-30.99 24.317-13.134 3.675-26.932 2.042-38.847-4.596h-.003c-12.1-6.74-20.819-17.798-24.542-31.145zm8.826 81.967l1.347-2.51-19.305-10.33-1.34 2.517 19.298 10.323" fill="#FFFFFE"/><path d="M166.87 331.232s3.567 6.477 1.845 9.794c-1.651 3.198-8.6 3.248-8.6 3.248-8.6-6.095-37.455-17.282-28.27-26.563 5.323-7.808 30.096 9.655 35.024 13.521" fill="#F7D0C2"/><path d="M168.854 316.46s3.566 6.474 1.844 9.792c-1.651 3.197-8.599 3.249-8.599 3.249-8.6-6.097-37.456-17.285-28.272-26.566 5.324-7.806 30.094 9.655 35.027 13.524" fill="#F7D0C2"/><path d="M170.608 302.456s3.569 6.475 1.848 9.792c-1.653 3.2-8.602 3.25-8.602 3.25-8.598-6.095-37.453-17.282-28.271-26.564 5.326-7.806 30.096 9.653 35.025 13.522" fill="#F7D0C2"/><path d="M169.796 286.907s2.818 5.116 1.457 7.735c-1.302 2.523-6.787 2.564-6.787 2.564-6.79-4.814-29.533-10.346-22.32-20.974 4.202-6.165 23.757 7.623 27.65 10.675" fill="#F7D0C2"/><path d="M151.2 337.296c-2.046-.525-14.017-6.12-15.635-7.499a15.837 15.837 0 0 1-3.855-5.054 12.313 12.313 0 0 1-1.016-3.053c-.19-1.058-.24-2.176.058-3.256.274-1.075 1.01-2.089 2.038-2.604 1.025-.532 2.182-.619 3.265-.528l.014-.003.022.004c1.633.304 3.256.695 4.844 1.212a36.209 36.209 0 0 1 4.63 1.875c2.99 1.452 5.868 3.022 8.925 4.229l-.257.653a63.344 63.344 0 0 1-4.57-1.977l-4.436-2.199c-1.48-.703-2.977-1.353-4.527-1.868a37.763 37.763 0 0 0-4.744-1.235l.035.005c-1.005-.107-2.04-.037-2.916.389-.88.42-1.52 1.24-1.793 2.2-.29.958-.279 2.01-.12 3.024.164 1.018.486 2.012.911 2.966a15.518 15.518 0 0 0 3.657 5.032c1.537 1.423 13.445 7.084 15.47 7.687m-12.536-22.129c-1.531-.814-3-1.784-4.24-3.026-1.223-1.23-2.249-2.773-2.538-4.552a5.661 5.661 0 0 1 .196-2.67 5.751 5.751 0 0 1 1.418-2.291c1.29-1.296 3.083-1.972 4.867-2.138h.002l.044-.005.048.01a38.83 38.83 0 0 1 4.84 1.234c1.583.52 3.124 1.172 4.62 1.888l4.437 2.205a62.84 62.84 0 0 0 4.505 1.986l-.257.652a60.297 60.297 0 0 1-4.554-2.009l-4.433-2.201a37.6 37.6 0 0 0-4.538-1.854 38.148 38.148 0 0 0-4.751-1.212l.091.006c-1.662.096-3.334.671-4.552 1.817a5.211 5.211 0 0 0-1.635 4.532c.211 1.688 1.148 3.227 2.317 4.48 1.18 1.266 2.608 2.282 4.113 3.148" fill="#B99765"/><path d="M142.544 301.964c-1.708-.565-3.357-1.389-4.787-2.51-1.427-1.118-2.652-2.54-3.41-4.22-.743-1.655-1.016-3.67-.21-5.415a4.973 4.973 0 0 1 1.852-2.096c.794-.51 1.7-.794 2.61-.94 1.83-.29 3.68.027 5.413.406 1.752.37 3.502.813 5.194 1.458 1.699.635 3.276 1.514 4.871 2.282a49.95 49.95 0 0 0 4.905 2.046l-.24.66a49.812 49.812 0 0 1-4.958-2.103c-1.616-.79-3.164-1.66-4.807-2.288-1.643-.634-3.36-1.08-5.094-1.456-1.736-.39-3.474-.69-5.196-.43-.85.132-1.68.391-2.394.843a4.419 4.419 0 0 0-1.655 1.852c-.727 1.54-.508 3.401.19 4.968.702 1.589 1.865 2.96 3.234 4.046 1.377 1.09 2.963 1.896 4.637 2.46l-.155.437" fill="#B99765"/><path d="M149.403 289.376c-2.714-.478-5.113-2.142-6.721-4.303-.81-1.084-1.443-2.303-1.798-3.616-.346-1.299-.42-2.748.144-4.026a4.001 4.001 0 0 1 1.28-1.597c.554-.41 1.196-.673 1.853-.826 1.322-.305 2.68-.223 3.99-.009 2.627.456 5.113 1.44 7.508 2.559-2.419-1.063-4.925-1.994-7.536-2.383-1.297-.184-2.638-.233-3.898.087-1.256.303-2.402 1.115-2.875 2.309-.492 1.18-.401 2.537-.043 3.769.362 1.237.996 2.397 1.794 3.417 1.59 2.034 3.886 3.543 6.425 3.93l-.123.689" fill="#B99765"/><path d="M141.484 319.674l-2.01 7.113s-3.708-2.214-4.651-3.657c-1.296-2.229-.232-5.286-.232-5.286.727-2.457 6.893 1.83 6.893 1.83" fill="#F7D0C2"/><path d="M141.078 319.822c-.693-.459-2.98-1.92-4.64-2.298-1.299-.296-1.453.223-1.51.42-.014.045-1 2.951.197 5.008.706 1.08 3.173 2.69 4.137 3.294l1.816-6.424zm-4.483-2.981c2.1.479 4.97 2.46 5.09 2.543l.205.144-2.204 7.797-.393-.235c-.152-.092-3.788-2.273-4.765-3.768-1.37-2.36-.313-5.463-.268-5.592.176-.6.729-1.257 2.335-.89z" fill="#B99765"/><path d="M139.244 303.872c1.838.67 2.458 1.418 2.458 1.418l-1.369 7.834s-4.505-2.16-5.35-3.807c-1.17-2.536 1.178-7.205 4.261-5.445" fill="#F7D0C2"/><path d="M141.326 305.41c-.237-.217-.896-.732-2.202-1.207a2.866 2.866 0 0 0-.771-.312c-1.121-.257-1.922.487-2.302.954-.981 1.214-1.31 3.112-.749 4.322.581 1.13 3.334 2.705 4.767 3.434l1.257-7.191zm-2.817-2.206c.303.069.608.193.911.364 1.848.669 2.525 1.464 2.552 1.499l.103.123-1.475 8.45-.419-.2c-.187-.09-4.619-2.231-5.508-3.964-.683-1.472-.32-3.644.834-5.072.83-1.028 1.896-1.453 3.002-1.2z" fill="#B99765"/><path d="M140.213 289.55c1.862.537 2.48 1.171 2.48 1.171l-1.585 6.826s-4.892-1.905-5.717-3.315c-.52-1.029.216-2.985.216-2.985.573-2.355 3.678-1.956 4.606-1.697" fill="#F7D0C2"/><path d="M142.301 290.855c-.261-.196-.923-.606-2.184-.97a1.831 1.831 0 0 0-.156-.038c-.143-.033-3.466-.765-4.012 1.484-.203.545-.612 2.013-.243 2.742.565.963 3.624 2.37 5.153 2.998l1.442-6.216zm-2.184-1.692c.07.013.135.031.19.05 1.931.553 2.61 1.234 2.637 1.263l.133.135-1.719 7.408-.376-.145c-.512-.202-5.03-1.993-5.892-3.462-.584-1.154.108-3.072.19-3.29.552-2.281 3.3-2.313 4.837-1.96z" fill="#B99765"/><path d="M148.3 276.542c1.862.536 2.48 1.172 2.48 1.172l-1.583 6.827s-4.893-1.906-5.717-3.316c-.52-1.03.214-2.984.214-2.984.573-2.356 3.678-1.958 4.606-1.699" fill="#F7D0C2"/><path d="M150.39 277.845c-.263-.192-.923-.602-2.185-.967-.046-.012-.099-.023-.156-.037-.143-.033-3.466-.766-4.013 1.483-.203.545-.612 2.014-.243 2.744.565.964 3.625 2.368 5.155 2.995l1.441-6.218zm-2.185-1.69c.07.014.133.031.189.05 1.932.555 2.61 1.235 2.637 1.265l.134.135-1.719 7.408-.377-.147c-.511-.2-5.03-1.99-5.891-3.462-.584-1.154.107-3.073.19-3.288.552-2.284 3.3-2.315 4.837-1.962z" fill="#B99765"/><path d="M181.022 100.425c.029.37 2.103 5.1 2.133 5.474h10.316c-.039-.374 1.557-5.103 1.515-5.477-3.424 0-10.539 0-13.964.003" fill="#1056CA"/><path d="M174.85 68.068c1.043 2.612 2.01 15.534 2.94 18.18h21.94c1.015-2.658 2.07-15.588 3.208-18.202 2.497-3.607 13.988-16.992 17.883-29.531 5.246-15.737-9.448-37.96-32.22-37.991-22.701-.198-38.714 20.477-33.48 36.267 3.921 13.094 14.87 25.402 19.729 31.277" fill="#FFB839"/><path d="M190.395 22.185c-.116 0-.251.076-.335.133-1.054.717-2.18 3.53-1.38 7.534.18.9.376 1.752.586 2.561.533-1.801 1.038-3.959 1.496-6.54.44-2.474.022-3.475-.26-3.658l-.107-.03zm-16.965 4.902c-.346.467-.113 2.916 1.616 6.435 1.002 2.037 2.421 4.212 4.01 5.704-.357-2.26-.712-4.322-1.051-6.108l-.018-.097c-.32-1.69-1.072-5.651-2.73-6.336-.511-.21-1.107-.077-1.827.402zm28.841 1.923c-.377.21-1.086 1.44-1.437 2.046l-.26.449c-1.251 2.13-2.346 5.008-3.28 8.35a11.09 11.09 0 0 0 1.194-1.194c1.854-2.127 4.815-6.947 4.12-8.972-.148-.43-.273-.61-.337-.68zm-9.515 55.543c-1.668-9.147-.857-28.386 2.469-42.237-.453.048-.9.013-1.345-.102-2.08-.555-3.602-2.922-4.686-5.62-1.566 3.539-3.478 5.483-5.718 5.8-.884.127-1.764-.013-2.615-.356 1.973 13.24 4.1 32.462 3.56 42.433l-1.36-.075c.513-9.445-1.585-29.291-3.694-43.181-2.232-1.547-4.19-4.34-5.542-7.091-1.428-2.909-2.63-6.76-1.317-8.043l.09-.075c1.14-.784 2.21-.976 3.176-.58 2.34.963 3.129 5.113 3.55 7.342l.02.096c.385 2.04.822 4.618 1.27 7.548.878.509 1.783.762 2.671.633 1.532-.214 3.472-1.638 5.229-6.351a42.225 42.225 0 0 1-1.167-4.575c-.878-4.393.316-7.816 1.95-8.928.662-.448 1.372-.492 1.944-.119 1.016.658 1.322 2.45.86 5.041-.6 3.385-1.32 6.25-2.157 8.59 1.197 3.544 2.705 5.774 4.287 6.194.431.114.883.1 1.36-.047 1.046-4.009 2.317-7.492 3.811-10.035l.256-.438c.847-1.469 1.644-2.859 2.76-2.745.952.091 1.345 1.238 1.475 1.614 1.08 3.143-3.18 8.932-4.38 10.31-.929 1.067-1.845 1.827-2.744 2.282-3.38 13.589-4.346 33.298-2.674 42.472l-1.34.243z" fill="#FFFFFE"/><path d="M176.689 86.209c-2.485-.234-2.61 3.734.521 3.924-3.195-.125-3.324 3.967-.203 4.01-3.122-.169-3.249 4.438-.31 4.697-.748.815-1.334 1.454-1.967 2.141 4.038 1.892 26.362 1.77 26.828-.201-.55-.654-1.158-1.38-1.78-2.116 3.134-.276 2.302-4.432-.31-4.24 3.505-.386 2.166-4.543-.015-4.258 2.947-.544 2.05-3.548.374-3.917l2.142-2.937H174.04l2.648 2.897z" fill="#2879FF"/></g></svg>
