<svg viewBox="0 0 431 426" xmlns="http://www.w3.org/2000/svg" xmlns:xlink="http://www.w3.org/1999/xlink"><defs><path d="M.473 26.659c-.828-8.538 7.457-11.881 9.615-6.682-.691-8.155 3.21-18.848 9.902-19.77 12.63-1.995 8.97 13.85 15.041 14.08 5.547-.177 1.413-13.71 14.027-6.93 3.02 1.515 4.551 7.214 6.685 14.256 4.323-8.028 11.476 4.756 6.655 6.906C41.492 33.543-1.045 32.817.473 26.66z" id="a"/><path d="M55.627 121.768c-17.519-19.002-16.311-48.597 2.7-66.107 19.012-17.511 48.619-16.312 66.14 2.69 17.518 19.002 16.309 48.596-2.703 66.115-19.012 17.51-48.629 16.295-66.137-2.698zm-33.015 3.98c-2.35 5.078-4.707 10.162-7.053 15.234l17.719 19.222c5.267-1.938 10.538-3.864 15.81-5.799a75.008 75.008 0 0 0 18.52 8.522c1.93 5.273 3.858 10.531 5.79 15.786l26.127 1.066c2.364-5.092 4.724-10.186 7.08-15.28a75.378 75.378 0 0 0 19.152-7.043c5.076 2.354 10.157 4.712 15.242 7.052l19.221-17.704c-1.939-5.27-3.863-10.536-5.806-15.801a75.587 75.587 0 0 0 8.549-18.52c5.256-1.927 10.512-3.861 15.782-5.793l1.058-26.104c-5.103-2.368-10.2-4.726-15.284-7.083a75.715 75.715 0 0 0-7.047-19.147c2.365-5.067 4.701-10.15 7.066-15.231l-17.729-19.22c-5.268 1.935-10.54 3.873-15.807 5.801a75.747 75.747 0 0 0-18.518-8.53c-1.937-5.256-3.866-10.509-5.801-15.766L80.565.34c-2.362 5.092-4.723 10.194-7.084 15.29a75.006 75.006 0 0 0-19.15 7.035c-5.08-2.355-10.154-4.707-15.24-7.058l-19.22 17.715c1.935 5.257 3.865 10.528 5.793 15.793a76 76 0 0 0-8.537 18.522C11.87 69.569 6.61 71.492 1.344 73.43L.277 99.54c5.1 2.362 10.205 4.72 15.3 7.078a75.735 75.735 0 0 0 7.035 19.13z" id="b"/><path d="M44.428 14.024c.582-4.443-5.243-6.183-6.76-3.477.486-4.243-2.257-9.81-6.962-10.288C21.826-.778 24.4 7.467 20.13 7.586c-3.9-.093-.993-7.134-9.862-3.607-2.123.79-3.2 3.755-4.7 7.419C2.527 7.22.665 9.94.107 14.024a126.185 126.185 0 0 0 44.32 0z" id="c"/><path d="M.276 13.858c-.583-4.442 5.244-6.182 6.76-3.476C6.553 6.138 9.296.572 13.999.094 22.879-.944 20.306 7.3 24.574 7.42c3.899-.092.993-7.134 9.862-3.606 2.125.788 3.2 3.754 4.701 7.419 3.039-4.177 4.902-1.457 5.46 2.625a126.165 126.165 0 0 1-44.32 0z" id="d"/><path d="M238.421 102.44c1.354-9.445-6.276-21.83-19.366-22.898-11.258-1.052-15.893 2.187-18.735 6.047-5.243-17.406-9.283-31.263-16.896-35.08-11.057-5.942-17.241-5.976-21.116-3.368-1.299-15.546-6.175-31.057-10.562-47.01-9.374-.252-18.837.135-28.177.38 1.909 11.092 1.524 22.335-.48 33.568-3.93-2.516-9.224-3.683-16.656-2.51-16.497 2.275-26.587 26.972-26.426 47.799a28.604 28.604 0 0 0-2.914.21c-7.244-6.043-20.921.72-22.373 16.211-9.528-1.028-2.587-15.594-26.557-7.966-5.907 1.756-8.902 8.359-13.076 16.512-7.831-8.613-12.852-4.053-14.786 3.89h257.016c-.65-8.416-14.963-11.392-18.896-5.785z" id="e"/></defs><g fill="none" fill-rule="evenodd"><use fill="#E8EAEC" xlink:href="#a" transform="translate(16.78 52.316)"/><path d="M208.142 20.777l-.057-.725c2.911-.229 5.847-.375 8.72-.437l.017.728c-2.861.061-5.781.207-8.68.434m26.056.235a141.369 141.369 0 0 0-8.676-.6l.025-.726c2.923.113 5.859.314 8.726.602l-.075.724m-43.306 2.06l-.134-.715c2.868-.536 5.77-1.001 8.623-1.383l.096.721c-2.84.38-5.728.843-8.585 1.377m60.462.804a129.324 129.324 0 0 0-8.531-1.715l.12-.717c2.883.48 5.77 1.059 8.578 1.724l-.167.708m-77.376 3.246l-.204-.699a181.94 181.94 0 0 1 8.442-2.243l.17.708a181.7 181.7 0 0 0-8.408 2.234m93.986 1.94a122.17 122.17 0 0 0-8.213-2.888l.214-.695c2.79.87 5.571 1.847 8.264 2.905l-.265.677m-110.449 3.717l-.268-.677a189.14 189.14 0 0 1 8.198-3.032l.237.687c-2.723.936-5.47 1.953-8.167 3.022m126.132 3.81a117.66 117.66 0 0 0-7.697-4.05l.315-.656a119.178 119.178 0 0 1 7.746 4.075l-.364.631m-142.022 3.33l-.329-.65a197.976 197.976 0 0 1 7.897-3.763l.298.664a196.417 196.417 0 0 0-7.866 3.748m156.415 6.415a119.627 119.627 0 0 0-7.017-5.137l.409-.602a119.565 119.565 0 0 1 7.059 5.168l-.451.57m-171.623 2.116l-.384-.617a200.05 200.05 0 0 1 7.539-4.45l.356.634a198.463 198.463 0 0 0-7.511 4.433m184.467 9.597a126.7 126.7 0 0 0-6.215-6.083l.49-.536a126.258 126.258 0 0 1 6.252 6.118l-.527.501m-198.871.254l-.437-.582a199.1 199.1 0 0 1 7.12-5.105l.412.6a195.233 195.233 0 0 0-7.095 5.087M98.548 69.413l-.49-.538a190.794 190.794 0 0 1 6.633-5.736l.463.561a190.285 190.285 0 0 0-6.606 5.713m223.486 1.973a136.874 136.874 0 0 0-5.36-6.852l.56-.466a140.666 140.666 0 0 1 5.388 6.887l-.588.431M86.213 81.72l-.538-.49a177.69 177.69 0 0 1 6.042-6.327l.514.515a177.574 177.574 0 0 0-6.018 6.302m245.26 4.276a155.304 155.304 0 0 0-4.508-7.442l.611-.395c1.556 2.41 3.08 4.927 4.53 7.477l-.632.36M74.589 94.764a164.246 164.246 0 0 1 5.367-6.91l.563.46a163.794 163.794 0 0 0-5.343 6.88l-.587-.43zm264.695 6.782a175.75 175.75 0 0 0-3.71-7.874l.654-.327a180.997 180.997 0 0 1 3.723 7.908l-.667.293M65.672 109.78l-.632-.36a149.897 149.897 0 0 1 4.566-7.464l.61.397a149.588 149.588 0 0 0-4.544 7.427m279.929 7.991a208.341 208.341 0 0 0-2.98-8.182l.678-.264a208.034 208.034 0 0 1 2.992 8.212l-.69.234m-287.628 7.63l-.673-.278a136.679 136.679 0 0 1 3.627-7.981l.654.322a136.254 136.254 0 0 0-3.608 7.938m292.605 9.06a245.578 245.578 0 0 0-2.33-8.393l.696-.207c.817 2.74 1.603 5.571 2.338 8.419l-.704.182m-298.18 7.426l-.704-.183a124.11 124.11 0 0 1 2.515-8.384l.69.232a123.415 123.415 0 0 0-2.501 8.335m301.969 9.579a264.03 264.03 0 0 0-1.756-8.535l.712-.156a271.995 271.995 0 0 1 1.759 8.556l-.715.135M49.25 158.96l-.723-.077c.308-2.872.732-5.78 1.26-8.642l.718.132a115.245 115.245 0 0 0-1.255 8.587m307.863 9.719c-.38-2.902-.8-5.803-1.25-8.625l.72-.114c.45 2.828.87 5.737 1.25 8.645l-.72.094m-309.099 7.676a111.348 111.348 0 0 1-.086-8.755l.729.02a112.114 112.114 0 0 0 .084 8.699l-.727.036m310.923 9.66a374.09 374.09 0 0 0-.803-8.68l.722-.075c.3 2.859.572 5.785.806 8.697l-.725.058M50.239 193.71a113.199 113.199 0 0 1-1.452-8.633l.722-.093c.367 2.856.852 5.743 1.443 8.578l-.713.148m309.764 6.224l-.728-.03a105.32 105.32 0 0 0 .003-8.696l.726-.03a106.135 106.135 0 0 1-.001 8.756M54.621 210.631a259.86 259.86 0 0 1-2.343-8.418l.705-.184c.734 2.824 1.52 5.649 2.335 8.394l-.697.208m303.207 6.648l-.713-.148c.596-2.833 1.08-5.716 1.438-8.57l.722.091a107.16 107.16 0 0 1-1.447 8.627M60.2 227.189a227.36 227.36 0 0 1-2.944-8.228l.69-.23c.93 2.764 1.918 5.523 2.934 8.2l-.68.258m292.676 6.846l-.68-.259a111.166 111.166 0 0 0 2.79-8.23l.698.206a111.931 111.931 0 0 1-2.808 8.283m-285.802 9.222a203.272 203.272 0 0 1-3.606-7.962l.67-.285a202.377 202.377 0 0 0 3.592 7.933l-.656.314m278.336 6.612l-.634-.357a121.444 121.444 0 0 0 4-7.735l.66.311a122.9 122.9 0 0 1-4.026 7.78M75.355 258.65a180.006 180.006 0 0 1-4.323-7.598l.642-.345a178.626 178.626 0 0 0 4.305 7.568l-.624.375m260.443 5.852l-.581-.438c1.76-2.328 3.449-4.72 5.02-7.111l.609.4a134.944 134.944 0 0 1-5.048 7.15m-250.67 8.64a163.654 163.654 0 0 1-5.077-7.119l.604-.406c1.627 2.415 3.327 4.8 5.054 7.087l-.58.438m239.28 4.638l-.524-.505c2.026-2.094 4-4.259 5.867-6.435l.554.473a148.175 148.175 0 0 1-5.897 6.467m-227.972 8.696a149.747 149.747 0 0 1-5.846-6.506l.555-.47a150.047 150.047 0 0 0 5.818 6.474l-.527.502m215.116 3.172l-.464-.562a160.397 160.397 0 0 0 6.564-5.727l.492.535a161.148 161.148 0 0 1-6.592 5.754m-202.302 8.726a140.276 140.276 0 0 1-6.59-5.752l.495-.534a139.348 139.348 0 0 0 6.557 5.723l-.462.563m188.246 1.692l-.404-.606a169.298 169.298 0 0 0 7.134-5.005l.434.584a170.936 170.936 0 0 1-7.164 5.027m-174.042 8.512a137.707 137.707 0 0 1-7.265-4.876l.425-.591a135.543 135.543 0 0 0 7.226 4.849l-.386.618m158.972.444l-.34-.642a178.06 178.06 0 0 0 7.612-4.275l.373.626a179.109 179.109 0 0 1-7.645 4.291m-15.864 7.438l-.278-.672c2.675-1.1 5.364-2.281 7.99-3.514l.308.66a183.02 183.02 0 0 1-8.02 3.526m-127.711.418a135.272 135.272 0 0 1-7.833-3.902l.346-.641a134.436 134.436 0 0 0 7.79 3.882l-.303.66m111.214 5.46l-.21-.698c2.77-.839 5.559-1.755 8.284-2.727l.244.685a181.923 181.923 0 0 1-8.318 2.74m-94.875.818a140.104 140.104 0 0 1-8.273-2.881l.26-.68a138.564 138.564 0 0 0 8.23 2.865l-.217.696m77.896 3.428l-.143-.713a177.496 177.496 0 0 0 8.507-1.909l.176.707c-2.819.705-5.693 1.35-8.54 1.915m-60.905.774a149.183 149.183 0 0 1-8.558-1.843l.174-.706c2.8.691 5.665 1.309 8.517 1.833l-.133.716m43.59 1.768l-.07-.724a170.4 170.4 0 0 0 8.654-1.048l.104.72a173.47 173.47 0 0 1-8.687 1.052m-26.225.396a152.974 152.974 0 0 1-8.712-.831l.09-.722c2.854.355 5.773.634 8.67.826l-.048.727m10.588.35c-.614 0-1.228-.003-1.842-.01l.008-.727a160.25 160.25 0 0 0 8.71-.136l.032.727c-2.297.097-4.621.147-6.908.147" fill="#2879FF"/><use fill="#78C2D0" xlink:href="#b" transform="translate(250.377 44.182)"/><path d="M395.176 134.243h-.479c0 14.983-6.075 28.544-15.899 38.364-9.825 9.819-23.391 15.89-38.382 15.891-14.99 0-28.557-6.072-38.38-15.891-9.824-9.82-15.899-23.38-15.9-38.364.001-14.984 6.076-28.545 15.9-38.365 9.823-9.82 23.39-15.891 38.38-15.891 14.99 0 28.557 6.072 38.382 15.891 9.824 9.82 15.899 23.38 15.899 38.365h.957c0-30.493-24.731-55.213-55.238-55.213-30.506 0-55.236 24.72-55.237 55.213.001 30.492 24.731 55.212 55.237 55.212 30.507 0 55.238-24.72 55.238-55.212h-.478" fill="#FFFFFE"/><path d="M391.444 235.538c-.275.005 0 .706 0 .706-12.35-5.024-97.488-8.35-100.2 10.455-4.372 30.344-8.79 51.49 14.248 60.594 14.808 5.854 47.356 4.304 68.31 2.352l16.8 12.484-.4-14.37a55.067 55.067 0 0 0 2.073-.337c22.903-4.36 35.88-72.426-.831-71.884" fill="#FFB839"/><path d="M382.627 255.144c-10.092.452-21.304.67-34.28.67h-.003c-10.584 0-20.96-.146-28.815-.273l-.396-.007-.027 1.826.407.007c7.897.129 18.316.275 28.88.275 12.982 0 24.196-.22 34.281-.67l.417-.018-.077-1.826-.387.016m-63.078 13.87c10.073-.451 21.259-.67 34.205-.67 10.583 0 21 .148 28.895.277l.395.007.028-1.83-.409-.005c-7.95-.13-18.42-.278-28.904-.278-12.98 0-24.185.22-34.256.67l-.417.02.078 1.827.385-.018m31.79 10.902c0-.601.031-1.19.092-1.76-11.934.026-22.4.245-31.92.667l-.417.02.077 1.824.386-.015c9.436-.423 19.855-.642 31.782-.667v-.069" fill="#FFFFFE"/><use fill="#E8EAEC" xlink:href="#c" transform="translate(92.411 296.813)"/><use fill="#E8EAEC" xlink:href="#d" transform="translate(315.956 2.555)"/><path d="M61.669 298.394a6.09 6.09 0 0 1-1.948-8.383c1.776-2.85 5.54-3.725 8.388-1.951a6.099 6.099 0 0 1 1.95 8.39 6.098 6.098 0 0 1-8.39 1.944zm-3.908 6.266c6.308 3.931 15.217 2.327 18.565-4.306 36.5-72.283 55.667-99.654 55.667-99.654s7.766-4.999 10.043-6.554c2.375-1.622 5.674-6.915 6.085-9.763.423-2.914-3.148-11.34-3.148-11.34l-8.134 13.042-7.419-4.62 8.134-13.046s-9.147.509-11.576 2.171c-2.378 1.62-5.677 6.913-6.089 9.76-.395 2.73-.156 7.382-.156 7.382s-44.695 64.724-65.085 94.68c-7.604 11.172-3.193 18.322 3.113 22.248z" fill="#78C2D0"/><path d="M131.468 172.233c-1.82.299-3.226.645-3.72.956-1.66 1.133-4.457 5.616-4.745 7.612-.287 1.982-.19 5.558-.128 6.77l.055 1.065-.608.882c-.447.647-44.922 65.057-65.073 94.664-3.552 5.218-4.379 9.662-2.457 13.208.931 1.72 2.49 3.268 4.633 4.603 1.729 1.077 3.775 1.638 5.81 1.638.968 0 1.933-.127 2.86-.386 2.439-.683 4.365-2.213 5.423-4.308 36.183-71.654 55.705-99.764 55.898-100.04l.354-.506.52-.335c.077-.05 7.756-4.993 9.971-6.507 1.664-1.135 4.459-5.62 4.746-7.615.063-.579-.245-1.99-.778-3.754l-7.223 8.416-9.542-5.21 4.004-11.153zm-1.186 1.005l-3.55 9.886-.224.625 10.125 5.528.552.301.41-.477 6.28-7.316c.297 1.152.387 1.815.364 2.039-.256 1.772-2.938 6.076-4.417 7.085-2.188 1.494-9.881 6.448-9.954 6.493l-.52.336-.128.083-.087.125-.353.505c-.193.276-19.704 28.346-55.956 100.136-.958 1.898-2.712 3.287-4.938 3.91a9.85 9.85 0 0 1-2.651.358c-1.907 0-3.825-.54-5.4-1.522-2.028-1.262-3.494-2.714-4.36-4.313-1.772-3.27-.96-7.442 2.417-12.402 20.268-29.78 64.65-94.051 65.07-94.66l.608-.881.15-.218-.014-.262-.055-1.065c-.06-1.194-.156-4.709.12-6.62.256-1.772 2.938-6.075 4.392-7.067.214-.134.886-.357 2.12-.607z" fill="#FFFFFE"/><path d="M5.132 149.688C4.584 161.966 3.35 170.9 2.45 177.43c-2.43 17.616-2.742 19.88 17.27 31.714 7.51 4.441 10.94 7.034 12.988 8.584 3.097 2.342 3.097 2.342 9.979 3.06 4.235.443 10.636 1.112 21.64 2.682.966.139 1.83.206 2.644.206 6.894 0 13.71-4.286 35.878-29.684 6.906-7.915 6.916-12.03 6.934-21.042.003-1.32.005-2.684.03-4.2.366-23.759-6.27-28.896-22.303-41.307a766.28 766.28 0 0 1-4.218-3.279c-12.918-10.124-24.951-11.636-30.974-11.636-3.53 0-5.578.515-5.812.653-2.18 1.4-6.714 2.776-11.513 4.232-7.713 2.34-16.457 4.994-17.903 8.365-2.406 5.612-2.406 5.612-3.316 7.229-.872 1.55-2.685 4.77-8.642 16.68zm61.839 74.81c-.852 0-1.756-.07-2.76-.214-10.99-1.568-17.38-2.236-21.61-2.677-6.976-.729-7.11-.743-10.389-3.224-2.035-1.539-5.441-4.114-12.911-8.531-20.483-12.113-20.108-14.833-17.665-32.535.9-6.528 2.133-15.468 2.677-27.753l.004-.087.04-.079c5.998-11.992 7.823-15.235 8.7-16.794.889-1.579.889-1.579 3.277-7.15 1.598-3.722 10.535-6.434 18.42-8.827 4.743-1.44 9.223-2.799 11.31-4.138.51-.329 2.967-.783 6.254-.783 6.13 0 18.369 1.535 31.482 11.811 1.47 1.152 2.874 2.239 4.213 3.276 16.263 12.59 22.994 17.8 22.622 41.969-.024 1.51-.027 2.872-.03 4.19-.019 9.223-.027 13.433-7.136 21.58-22.378 25.638-29.345 29.966-36.498 29.966z" fill="#B6B8B5"/><path fill="#1056CA" d="M86.52 127.365l-7.44-4.683 1.492-2.366 7.44 4.684-1.493 2.365m-56.664 89.897l-7.437-4.685 1.491-2.366 7.44 4.684-1.494 2.367m66.25-17.056l4.686-7.436 2.369 1.492-4.69 7.434-2.365-1.49"/><path d="M60.5 133.707c9.29 1.504 17.57 6.68 23.015 14.19 3.228-2.33 6.58-4.752 10.07-7.269-7.357-10.16-18.543-17.152-31.109-19.175-.543 3.373-1.194 7.418-1.976 12.254m29.26 40.489c-1.504 9.283-6.684 17.56-14.197 23.003 2.333 3.228 4.755 6.584 7.276 10.068 10.163-7.35 17.16-18.534 19.181-31.095l-12.26-1.976" fill="#FC5D16"/><path d="M60.176 203.494a35.225 35.225 0 0 1-10.923-.049L47.275 215.7c4.77.765 9.737.82 14.77.056a47.511 47.511 0 0 0 20.794-8.489c-2.52-3.484-4.943-6.84-7.276-10.068a35.121 35.121 0 0 1-15.387 6.295m29.634-40.219c.565 3.72.52 7.392-.05 10.921l12.26 1.976c.767-4.766.821-9.727.057-14.756a47.507 47.507 0 0 0-8.493-20.788c-3.488 2.517-6.841 4.939-10.069 7.27a35.109 35.109 0 0 1 6.295 15.377m-40.235-29.617a35.223 35.223 0 0 1 10.925.049c.782-4.836 1.433-8.88 1.976-12.254a47.756 47.756 0 0 0-14.765-.061 47.53 47.53 0 0 0-20.796 8.489c2.004 2.772 4.404 6.093 7.275 10.07a35.138 35.138 0 0 1 15.385-6.293m-29.631 40.216a35.194 35.194 0 0 1 .049-10.92c-4.84-.78-8.886-1.433-12.264-1.976a47.608 47.608 0 0 0-.059 14.759 47.518 47.518 0 0 0 8.495 20.787c2.773-2 6.097-4.402 10.073-7.272a35.11 35.11 0 0 1-6.294-15.378" fill="#FFFFFE"/><path d="M34.19 139.95a19308.02 19308.02 0 0 0-7.275-10.07c-10.168 7.352-17.161 18.535-19.186 31.098 3.378.543 7.425 1.196 12.264 1.976 1.503-9.283 6.683-17.56 14.197-23.004" fill="#FC5D16"/><path fill="#1056CA" d="M6.169 142.567l4.685-7.434 2.368 1.49-4.688 7.435-2.365-1.491"/><path d="M7.67 175.737c-.764-5.03-.71-9.993.06-14.76-1.642-.264-3.124-.503-4.462-.72a51.92 51.92 0 0 0-.072 16.159 51.925 51.925 0 0 0 9.312 22.75l3.657-2.642a47.518 47.518 0 0 1-8.495-20.787" fill="#EEECE7"/><path d="M49.253 203.445c-9.288-1.502-17.568-6.682-23.015-14.193l-10.073 7.272c7.356 10.161 18.544 17.152 31.11 19.176l1.978-12.255" fill="#FC5D16"/><path d="M50.314 138.54a30.382 30.382 0 0 1 9.401.041l.785-4.874a35.223 35.223 0 0 0-10.925-.049 35.138 35.138 0 0 0-15.385 6.292 8792.07 8792.07 0 0 1 2.89 4 30.271 30.271 0 0 1 13.234-5.41" fill="#EEECE7"/><path d="M37.08 143.95a8792.07 8792.07 0 0 0-2.89-4c-7.514 5.444-12.694 13.72-14.197 23.004l4.874.784c1.288-7.996 5.742-15.11 12.213-19.789m42.43 6.841l4.005-2.892c-5.446-7.51-13.726-12.687-23.015-14.191l-.785 4.874c7.997 1.288 15.112 5.741 19.794 12.208M72.67 193.2c.95 1.31 1.913 2.644 2.893 3.999 7.513-5.442 12.693-13.72 14.198-23.003l-4.878-.785c-1.286 7.995-5.741 15.108-12.212 19.789" fill="#D9593B"/><path d="M89.81 163.275a35.109 35.109 0 0 0-6.295-15.377l-4.006 2.891a30.233 30.233 0 0 1 5.415 13.23c.487 3.2.448 6.358-.041 9.392l4.878.785c.57-3.529.614-7.202.049-10.92m-64.985 9.859a30.314 30.314 0 0 1 .042-9.397l-4.874-.784a35.194 35.194 0 0 0-.049 10.92 35.11 35.11 0 0 0 6.294 15.378l4.001-2.889a30.253 30.253 0 0 1-5.414-13.228" fill="#EEECE7"/><path d="M50.04 198.57c-8.001-1.287-15.118-5.739-19.8-12.207l-4.002 2.889c5.447 7.51 13.727 12.69 23.015 14.193.267-1.652.527-3.278.786-4.875" fill="#D9593B"/><path d="M59.439 198.61a30.432 30.432 0 0 1-9.4-.04c-.26 1.597-.52 3.223-.786 4.875 3.529.571 7.204.613 10.923.05a35.121 35.121 0 0 0 15.387-6.296c-.98-1.355-1.943-2.689-2.892-3.999a30.263 30.263 0 0 1-13.232 5.41" fill="#EEECE7"/><path d="M16.165 196.524l-3.657 2.642c8.058 11.113 20.307 18.773 34.048 20.998l.72-4.464c-12.567-2.024-23.755-9.015-31.111-19.176" fill="#D9593B"/><path d="M82.839 207.267a47.511 47.511 0 0 1-20.794 8.489c-5.033.764-10 .71-14.77-.056l-.72 4.464a52.145 52.145 0 0 0 16.163.073 51.991 51.991 0 0 0 22.763-9.312c-.892-1.234-1.774-2.453-2.642-3.658" fill="#EEECE7"/><path d="M82.839 207.267c.868 1.205 1.75 2.424 2.642 3.658 11.116-8.054 18.78-20.298 21.005-34.033l-4.466-.72c-2.021 12.561-9.018 23.745-19.181 31.095m-20.363-85.814c12.566 2.023 23.752 9.015 31.108 19.175l3.663-2.645c-8.056-11.112-20.31-18.771-34.05-20.994-.217 1.338-.454 2.82-.72 4.464" fill="#D9593B"/><path d="M102.077 161.416c.764 5.029.71 9.99-.057 14.756l4.466.72a52.01 52.01 0 0 0 .075-16.158 51.93 51.93 0 0 0-9.314-22.75c-1.238.892-2.457 1.774-3.663 2.644a47.507 47.507 0 0 1 8.493 20.788" fill="#EEECE7"/><path d="M26.915 129.88a3145.23 3145.23 0 0 1-2.643-3.657c-11.118 8.055-18.78 20.3-21.004 34.035l4.461.72c2.025-12.563 9.018-23.746 19.186-31.097" fill="#D9593B"/><path d="M47.71 121.392a47.756 47.756 0 0 1 14.766.06c.267-1.642.504-3.125.722-4.463a52.04 52.04 0 0 0-16.167-.074 51.986 51.986 0 0 0-22.76 9.308c.793 1.099 1.672 2.314 2.644 3.658a47.53 47.53 0 0 1 20.796-8.49" fill="#EEECE7"/><path d="M406.93 347.017c.402-.901.8-1.805 1.183-2.707.12-.283.244-.565.363-.848 9.823-23.384 13.657-48.117 11.269-72.713-.03-.297-.058-.595-.091-.89-.1-.954-.206-1.905-.321-2.858-.766-6.251-7.43-10.796-14.313-10.178l-8.216.675a137.256 137.256 0 0 1 2.675 24.287l8.303.082c.374.004.742-.015 1.106-.037.34 16.457-2.202 32.876-7.558 48.768a15.95 15.95 0 0 0-1.061-.25l-8.077-1.542a148.97 148.97 0 0 1-10.01 23.032c2.588.752 5.174 1.505 7.764 2.26 6.486 1.94 14.332-1.166 16.984-7.081" fill="#799921"/><path d="M396.804 257.498a137.256 137.256 0 0 1 2.675 24.287c1.597.016 3.19.03 4.78.047a167.047 167.047 0 0 0-2.762-24.72l-4.693.386m-4.612 71.308a148.97 148.97 0 0 1-10.01 23.032c1.558.452 3.117.906 4.675 1.36a181.459 181.459 0 0 0 10.121-23.479c-1.594-.304-3.192-.61-4.786-.913" fill="#64840E"/><path d="M404.48 281.43l.478-.057c-.996-8.417-1.867-15.995-3.226-24.299l-.474.077c1.354 8.29 2.226 15.86 3.221 24.279z" fill="#64840E"/><path d="M387.073 353.303c3.885-7.977 7.06-15.11 10.307-23.164l-.445-.179c-3.243 8.045-6.411 15.165-10.293 23.133l.43.21" fill="#FFFFFE"/><path d="M197.467 8.868c-.696 1.47-1.05 31.1 0 32.86l23.095-14.7-23.095-18.16" fill="#FFB839"/><path d="M229.635 34.809l-9.073-7.782-23.095 14.7c1.716 2.862 5.672 5.574 8.926 6.137 1.047.165 42.477.079 42.983 0 3.67-.636 10.531-2.534 12.117-5.916l-22.782-14.92-9.076 7.78m33.739-21.31c0-2.085-.693-4.191-1.863-6.026l-22.8 19.555 22.782 14.92c.687-1.462 1.074-3.033 1.074-4.593 0-9.179.807-14.677.807-23.856" fill="#FFB839"/><path d="M261.511 7.472c-1.73-2.712-4.514-4.825-7.65-5.367-16.048-2.545-30.006-2.545-46.058 0-3.654.632-8.742 3.396-10.336 6.763l32.168 25.94 31.876-27.336" fill="#FFB839"/><path fill="#FFFFFE" d="M261.886 41.347l-23.233-15.216-9.018 7.732-9.01-7.727-23.543 14.986.77 1.21L220.5 27.92l9.136 7.836 9.134-7.832 22.33 14.625.787-1.2"/><path fill="#FFFFFE" d="M197.017 9.426l32.632 26.316 32.33-27.725-.936-1.09-31.422 26.948L197.918 8.31l-.901 1.117"/><path d="M151.493 257.884c-2.1.524-19.376 3.235-25.705-.05-6.824-3.542-5.516-11.764-4.22-23.565.803-7.312 26.02-6.02 29.678-4.066 0 0-.081-.272 0-.274 10.874-.21 7.03 26.26.247 27.955z" fill="#799921"/><path d="M139.344 250.792a6.772 6.772 0 0 1-6.77-6.766 6.773 6.773 0 0 1 6.77-6.769 6.768 6.768 0 1 1 0 13.535z" fill="#64840E"/><path d="M137.438 242.308v3.434a1 1 0 0 0 1.5.866l2.973-1.716a1 1 0 0 0 0-1.732l-2.973-1.718a1 1 0 0 0-1.5.866v3.434a1 1 0 0 0 1.5.866l2.973-1.716a1 1 0 0 0 0-1.732l-2.973-1.718a1 1 0 0 0-1.5.866z" stroke="#FFF" fill="#FFF"/><path d="M163.879 9.882C152.974 5.446 77.803 2.51 75.41 19.113c-3.86 26.791-7.761 45.462 12.58 53.501 13.075 5.168 41.811 3.8 60.31 2.076l14.835 11.021-.353-12.686a47.523 47.523 0 0 0 1.83-.297c20.222-3.849 31.678-63.947-.733-63.469-.242.005 0 .623 0 .623z" fill="#799921"/><use fill="#DDE0E2" xlink:href="#e" transform="translate(75.179 316.91)"/><path d="M164.486 413.024c.135-4.005 1.275-8.45 3.31-11.844 1.017-1.7 2.253-3.135 3.684-4.138 1.433-1.003 3.053-1.58 4.889-1.582 1.747 0 3.702.528 5.87 1.769l.628.359.085-.718c.383-3.231 2.032-6.356 4.241-8.653 2.208-2.302 4.965-3.755 7.489-3.75 1.407.003 2.748.436 3.96 1.433 1.21.997 2.293 2.577 3.103 4.89l.904-.316c-.852-2.434-2.02-4.175-3.397-5.312a7.05 7.05 0 0 0-4.57-1.651c-2.892.005-5.838 1.61-8.179 4.043-2.34 2.437-4.085 5.725-4.501 9.203l.475.056.238-.415c-2.28-1.305-4.404-1.895-6.346-1.895-2.042 0-3.87.654-5.438 1.756-2.355 1.654-4.14 4.289-5.376 7.276-1.235 2.991-1.919 6.34-2.026 9.46l.957.029m48.862-43.453c.79-2.098 1.57-3.752 2.59-4.843a4.992 4.992 0 0 1 1.747-1.24c.672-.282 1.46-.435 2.417-.435.871 0 1.881.127 3.057.402l.109-.466-.213.43c1.061.525 1.814 1.19 2.364 1.926.824 1.104 1.192 2.385 1.353 3.593.163 1.21.117 2.326.136 3.11l.02.752.673-.337c1.8-.899 3.426-1.29 4.884-1.29a7.518 7.518 0 0 1 4.003 1.134c1.772 1.086 3.221 2.91 4.295 5.151 1.074 2.24 1.771 4.89 2.062 7.592l.952-.103c-.404-3.727-1.543-7.37-3.42-10.12-.94-1.373-2.067-2.525-3.388-3.336a8.489 8.489 0 0 0-4.504-1.275c-1.631 0-3.407.439-5.312 1.391l.214.428.478-.013c-.013-.483.005-1.172-.033-1.96-.058-1.184-.239-2.6-.862-3.962-.62-1.36-1.703-2.658-3.49-3.54l-.05-.024-.053-.013c-1.23-.287-2.31-.427-3.275-.427-1.06 0-1.981.171-2.787.509-1.212.506-2.14 1.383-2.896 2.512-.758 1.13-1.362 2.517-1.967 4.116l.896.338m1.129 37.07c.87-1.741 1.887-3.035 2.998-3.884 1.113-.848 2.312-1.264 3.612-1.265 1.681-.001 3.558.712 5.55 2.23l.356.27.295-.336c2.255-2.58 4.942-3.894 7.356-3.891a6.12 6.12 0 0 1 3.852 1.327c1.137.896 2.104 2.267 2.755 4.176l.906-.311c-.699-2.047-1.763-3.588-3.069-4.617a7.09 7.09 0 0 0-4.444-1.533c-2.765.003-5.683 1.482-8.077 4.219l.36.315.29-.38c-2.103-1.602-4.173-2.425-6.13-2.426-1.51-.002-2.937.498-4.194 1.462-1.259.963-2.355 2.378-3.272 4.218l.856.426M108.712 418.68a1.442 1.442 0 0 1-.257-.824c-.001-.416.176-.89.536-1.373.536-.727 1.469-1.445 2.603-1.966a9.166 9.166 0 0 1 3.794-.857c1.156 0 2.306.25 3.347.823 1.04.58 1.977 1.484 2.71 2.842l.843-.454c-.81-1.507-1.888-2.56-3.09-3.22-1.202-.67-2.518-.948-3.81-.948-1.983.005-3.91.646-5.373 1.589-.731.474-1.347 1.024-1.793 1.622-.443.598-.723 1.258-.724 1.942a2.41 2.41 0 0 0 .418 1.355l.796-.532m72.429-56.741a1.448 1.448 0 0 1-.256-.824c-.002-.414.176-.889.536-1.373.536-.725 1.468-1.444 2.602-1.966 1.134-.524 2.465-.855 3.794-.854 1.156 0 2.307.247 3.347.823 1.04.577 1.978 1.481 2.71 2.84l.844-.453c-.81-1.506-1.888-2.56-3.09-3.224-1.202-.665-2.52-.944-3.81-.943a10.17 10.17 0 0 0-5.374 1.587c-.731.473-1.347 1.02-1.792 1.62-.444.598-.724 1.258-.724 1.943-.002.466.136.936.417 1.355l.796-.531m63.212 58.057a1.446 1.446 0 0 1-.257-.823c-.001-.416.176-.89.536-1.373.535-.727 1.468-1.445 2.602-1.966a9.163 9.163 0 0 1 3.794-.857c1.156 0 2.307.249 3.347.828 1.04.574 1.977 1.478 2.71 2.837l.844-.454c-.81-1.503-1.888-2.56-3.09-3.22-1.202-.67-2.52-.948-3.811-.948-1.983.005-3.91.646-5.373 1.589-.73.473-1.347 1.024-1.793 1.622-.443.598-.722 1.258-.724 1.942 0 .464.137.938.418 1.354l.797-.53m34.577-.852c-2.255-2.259-3.334-5.106-3.336-7.943 0-2.995 1.207-5.971 3.532-8.207 2.325-2.232 5.772-3.731 10.305-3.733 1.444 0 2.998.153 4.66.485l.188-.938a24.748 24.748 0 0 0-4.848-.504c-4.745-.002-8.456 1.584-10.969 4-2.513 2.414-3.825 5.643-3.825 8.897-.001 3.081 1.18 6.187 3.616 8.617l.677-.674" fill="#FFFFFE"/><path d="M161.723 352.285l.2.902c10.209-8.477 19.981-17.614 29.505-27.106-3.217-28.312-6.698-56.564-9.538-84.967-11.519 5.03-22.425 14.523-26.69 23.372-.768 48.42 1.083 60.502 6.523 87.8" fill="#FFB839"/><path d="M187.818 330.16a.672.672 0 0 1-.38-.138l.619-.607.103.008c.02.183.04.364.062.547-.129.128-.263.19-.404.19" fill="#EEA530"/><path d="M188.16 329.423l-.103-.008.092-.09a7.7 7.7 0 0 0 .01.098" fill="#19301F"/><path d="M178.722 242.616l.01-.005-.01.005m.03-.016" fill="#EEA530"/><path d="M187.438 330.022c-5.283-3.687-17.563-79.746-17.385-82.036a64.037 64.037 0 0 1 8.67-5.37l.008-.005.02-.01a56.97 56.97 0 0 1 3.139-1.487c2.818 28.188 3.11 60.055 6.259 88.21l-.092.09c-.206.204-.413.405-.62.608" fill="#F57C02"/><path d="M162.773 254.799a55.962 55.962 0 0 0-.022 1.592c0 8.537 1.664 23.333 3.326 39.093 1.663 15.757 3.324 32.47 3.324 44.796 0 2.26-.056 4.372-.178 6.302l.478.03c.122-1.943.178-4.065.178-6.332 0-12.366-1.663-29.086-3.325-44.847-1.663-15.757-3.324-30.56-3.324-39.042 0-.553.007-1.08.022-1.578l-.479-.014" fill="#FFFFFE"/><path d="M268.787 352.285c-.067.304-.131.604-.198.902-10.21-8.477-19.98-17.614-29.507-27.106 3.218-28.312 6.698-56.564 9.539-84.967 11.519 5.03 22.424 14.523 26.692 23.372.766 48.42-1.085 60.502-6.526 87.8" fill="#FFB839"/><path d="M242.693 330.16c-.14 0-.275-.062-.404-.19.025-.214.05-.43.073-.645l.712.697a.671.671 0 0 1-.381.138m10.47-86.818" fill="#EEA530"/><path d="M243.074 330.022l-.712-.697c3.149-28.156 3.442-60.023 6.259-88.211a58.205 58.205 0 0 1 4.542 2.228 64.662 64.662 0 0 1 7.295 4.644c.178 2.29-12.1 78.349-17.384 82.036" fill="#F57C02"/><path d="M267.26 254.813c.015.498.022 1.023.022 1.576 0 8.481-1.661 23.282-3.324 39.04-1.662 15.76-3.325 32.48-3.326 44.846 0 2.27.057 4.392.18 6.337l.477-.03a100.903 100.903 0 0 1-.178-6.307c0-12.326 1.66-29.04 3.323-44.796 1.663-15.759 3.326-30.555 3.327-39.09 0-.557-.008-1.087-.022-1.59l-.479.014" fill="#FFFFFE"/><path d="M187.6 323.879a422.198 422.198 0 0 1 0-184.283h55.31a422.198 422.198 0 0 1 0 184.283H187.6z" fill="#2879FF"/><path fill="#1056CA" d="M187.6 334.41h55.31v-10.531H187.6zm26.338-255.364l-26.337 60.55h55.31l-28.973-60.55"/><path fill="#FFB839" d="M190.07 133.92l-2.47 5.676h55.31l-2.714-5.676H190.07"/><path d="M193.098 201.056c0-12.147 9.886-22.083 22.037-22.148 12.336-.003 22.277 9.934 22.277 22.148 0 12.212-9.94 22.149-22.158 22.149l-.153-.003c-12.125-.066-22.003-10.002-22.003-22.146z" fill="#78C2D0"/><path d="M215.254 177.74h-.028l-.027.002-.093.002c-12.78.08-23.173 10.533-23.173 23.312 0 12.783 10.397 23.24 23.178 23.312l.094.001h.049c12.861 0 23.323-10.458 23.323-23.313 0-12.856-10.462-23.315-23.323-23.315zm0 2.33c11.574 0 20.993 9.416 20.993 20.986s-9.419 20.985-20.993 20.985l-.13-.002c-11.496-.064-20.86-9.476-20.86-20.983 0-11.51 9.364-20.921 20.877-20.983l.113-.003z" fill="#1056CA"/><path d="M213.077 182.43c-10.266 1.175-17.661 10.48-16.486 20.74 1.178 10.262 10.486 17.655 20.754 16.477 10.262-1.175 17.658-10.48 16.482-20.74-1.177-10.263-10.486-17.653-20.75-16.478zm4.318 37.655c-10.508 1.204-20.036-6.36-21.242-16.863-1.202-10.504 6.366-20.027 16.874-21.23 10.506-1.204 20.034 6.361 21.237 16.863 1.205 10.504-6.365 20.026-16.87 21.23z" fill="#FFFFFE"/><path d="M223.744 203.076c-1.36-1.629-2.756-3.511-4.271-5.76a157.377 157.377 0 0 1-3.253-5.068l-.042-.07-.737.49.043.072a167.85 167.85 0 0 0 3.26 5.079c1.516 2.248 2.912 4.132 4.27 5.757l.058.068.724-.508-.052-.06m-12.924-7.189c1.357 1.624 2.75 3.504 4.263 5.746 1.233 1.834 4.79 8.012 5.66 9.416l.93-.976-2.549-3.778-.045-.072a164.145 164.145 0 0 0-3.262-5.084c-1.514-2.249-2.912-4.13-4.267-5.754l-3.386-4.239-.724.509 3.38 4.232m-.305 8.817a159.456 159.456 0 0 1 3.26 5.083l.045.069.737-.488-.044-.073a159.291 159.291 0 0 0-3.263-5.084c-1.512-2.248-5.967-8.1-5.967-8.1l-.727.509s4.45 5.842 5.96 8.084" fill="#FFFFFE"/><path d="M210.747 363.006h5.508c.293-5.283 8.152-77.214 8.487-93.379.047-2.323-.494-4.817-2.117-6.938-1.216-1.577-4.686-3.756-7.048-3.715-.999.016-2.132.323-3.21.795-1.75.743-3.373 1.9-4.135 2.875a11.935 11.935 0 0 0-2.465 7.409s4.755 87.604 4.98 92.953" fill="#FFB839"/><path d="M215.566 264.8c-.831 8.606-.83 24.724-.952 42.075-.122 17.347-.367 35.921-1.683 49.394l.477.046c1.319-13.507 1.563-32.086 1.685-49.437.121-17.349.122-33.475.95-42.032l-.477-.046" fill="#FFFFFE"/><text font-family=".SFNSDisplay, .SF NS Display" font-size="30" fill="#FFF"><tspan x="79.162" y="52">START</tspan></text></g></svg>
