<svg viewBox="0 0 501 400" xmlns="http://www.w3.org/2000/svg" xmlns:xlink="http://www.w3.org/1999/xlink"><defs><path d="M.115 21.23c-1.091-6.662 9.82-9.271 12.662-5.213C11.87 9.652 17.01 1.307 25.82.589 42.46-.968 37.635 11.396 45.632 11.575 52.937 11.438 47.493.88 64.108 6.17c3.977 1.183 5.997 5.63 8.805 11.124 5.694-6.264 9.185-2.185 10.229 3.938a294.57 294.57 0 0 1-83.027 0z" id="a"/><path d="M68.01 17.057c.89-5.438-8.02-7.568-10.338-4.256C58.414 7.605 54.22.793 47.025.207 33.44-1.064 37.379 9.029 30.85 9.176c-5.963-.113-1.518-8.734-15.082-4.414-3.247.965-4.894 4.596-7.189 9.082C3.931 8.73 1.082 12.06.23 17.057a240.417 240.417 0 0 0 67.782 0z" id="b"/><path d="M.616 39.876c-2.091-12.782 18.842-17.784 24.295-10.003C23.163 17.666 33.019 1.659 49.927.28 81.842-2.705 72.59 21.012 87.93 21.356c14.013-.265 3.568-20.522 35.44-10.374 7.63 2.269 11.499 10.8 16.89 21.34 10.921-12.015 17.616-4.19 19.621 7.554a565.124 565.124 0 0 1-159.266 0z" id="c"/><path d="M.397 3.058C.868 1.915 1.375.987 1.845.48c.031.025.043.04.032.048C1.405.848.782 2.16.397 3.058" id="d"/><path d="M.842.747C.508.453.29.255.244.228.237.22.26.148.31.023.482.29.662.53.842.747" id="f"/><path d="M8.364.122C8.977-.392.89 11.43.89 11.43S1.424 3.684.4 3.953c-.324.086 3.197.167 7.964-3.83" id="h"/></defs><g fill="none" fill-rule="evenodd"><use fill="#DDE0E2" xlink:href="#a" transform="translate(417.484 124.409)"/><use fill="#DDE0E2" xlink:href="#b" transform="translate(7.083 71.503)"/><path d="M450.17 301.28c-4.289 9.12-5.496 26.412-15.6 29.231-4.188 1.17-9.449-.456-14.748-2.082-6.204-1.903-12.457-3.806-17.085-1.222-12.482 6.969 2.212 17.26-12.852 20.992-6.207 1.537-33.784 3.72-40.053 2.676-.917-.152-2.359-.032-4.074.088-4.984.347-12.273.695-15.669-5.629-10.04-18.698 96.903-97.904 139.539-79.321 19.544 8.517-15.71 27.295-19.457 35.266" fill="#64840E"/><path d="M342.814 351.744c-.428 0-.861-.011-1.3-.035.378-.185.75-.384 1.115-.593a59.09 59.09 0 0 0 3.13-.153c1.137-.08 2.155-.16 2.979-.16.417 0 .785.021 1.094.072-1.389.338-4.038.869-7.018.869" fill="#187070"/><path d="M342.63 351.116c4.442-2.542 7.9-6.668 9.966-7.781 6.376-3.441 12.179-7.75 16.692-13.47 9.96-12.626-4.247-17.28-2.13-29.288 10.367-7.568 22.05-14.9 33.945-21.035-5.21 39.482-24.205 64.766-51.271 71.333a6.882 6.882 0 0 0-1.094-.072c-.824 0-1.842.08-2.98.16-.97.067-2.029.135-3.129.153" fill="#58750A"/><path d="M329.826 344.767l-1.137-1.303c55.635-48.604 87.386-58.304 121.01-68.579 2.65-.81 5.305-1.624 7.979-2.454l.514 1.648c-2.678.834-5.338 1.646-7.992 2.46-33.432 10.216-65.018 19.867-120.374 68.228" fill="#799921"/><path d="M431.156 299.959c-8.805-6.847-15.816-6.305-25.525-5.551-1.42.107-2.89.224-4.427.318L401.1 293c1.524-.092 2.987-.204 4.397-.315 9.718-.753 17.393-1.347 26.722 5.91l-1.063 1.364m-59.911 12.456l-.127-1.722c1.71-.125 3.252-.286 4.612-.426 6.243-.652 10.01-1.045 17.883 2.782l-.758 1.55c-7.43-3.613-10.807-3.257-16.945-2.614-1.373.141-2.928.305-4.665.43m51.995-27.359l-1.803-.354c4.189-2.172 8.556-6.802 11.802-10.139 2.067-2.122 4.203-4.313 6.559-6.201l1.077 1.35c-2.27 1.818-4.366 3.972-6.4 6.056-3.343 3.435-6.8 6.986-11.234 9.288" fill="#799921"/><path d="M408.298 228.558c2.512 11.21 3.216 23.112-3.909 32.71-6.41 8.636-31.686 25.157-36.063 35.468-6.372 14.997 11.92 19.24.962 33.13-4.513 5.719-10.316 10.028-16.692 13.469-3.638 1.962-11.6 13.27-21.652 8.806-22.102-9.822-15.022-25.215-18.283-35.013-6.701-20.139-9.39-44.223 3.413-56.917 2.594-2.57 6.37-2.458 10.127-2.344 3.836.115 7.65.231 10.162-2.51 4.553-4.972 2.257-24.604 5.172-31.867 3.5-8.72 9.018-8.593 13.634-8.467 3.37.093 6.257.185 7.526-3.166 6.423-16.984 39.285-38.3 49.892-32.767 21.541 11.24-6.484 39.673-4.29 49.468" fill="#799921"/><path d="M330.191 351.787l-1.551-1.243c16.143-82.627 37.808-112.63 60.9-145.365 1.818-2.578 3.64-5.16 5.466-7.779l1.417.988c-1.828 2.62-3.652 5.207-5.471 7.789-22.982 32.578-44.687 63.35-60.76 145.61" fill="#FFF"/><path d="M359.55 256.78l-1.14-1.296a329.952 329.952 0 0 0 3.736-3.357c8.204-7.452 14.686-13.336 28.112-13.32l-.002 1.73c-12.76-.019-18.712 5.386-26.949 12.867a312.628 312.628 0 0 1-3.756 3.375m-14.623 36.875l-1.158-1.287c1.455-1.309 2.73-2.532 3.855-3.61 5.15-4.936 8.26-7.915 17.99-9.962l.355 1.69c-9.249 1.944-12.054 4.636-17.152 9.518a162.401 162.401 0 0 1-3.89 3.65" fill="#FFF"/><path d="M372.604 232.715l-1.99 1.3c2.259-4.9 3.299-12.387 3.897-17.673.376-3.349.768-6.813 1.568-10.147l1.681.405c-.776 3.23-1.162 6.64-1.533 9.94-.61 5.416-1.244 11.023-3.623 16.175" fill="#185C5A"/><path d="M241.556 110.97c-1.009 22.618-3.278 39.08-4.937 51.105-4.475 32.453-5.05 36.622 31.794 58.422 13.827 8.182 20.14 12.96 23.913 15.813 5.702 4.316 5.702 4.316 18.371 5.64 7.798.814 19.581 2.047 39.84 4.94 1.78.254 3.372.377 4.869.377 12.693 0 25.24-7.894 66.05-54.682 12.72-14.582 12.735-22.16 12.768-38.762.005-2.431.01-4.945.058-7.739.673-43.764-11.546-53.23-41.064-76.093a1549.1 1549.1 0 0 1-7.764-6.038c-23.783-18.651-45.936-21.436-57.025-21.436-6.5 0-10.27.948-10.7 1.203-4.016 2.58-12.361 5.113-21.197 7.795-14.2 4.313-30.298 9.2-32.96 15.41-4.43 10.339-4.43 10.339-6.105 13.317-1.605 2.854-4.943 8.789-15.911 30.729zm113.85 137.812c-1.57 0-3.233-.129-5.084-.393-20.23-2.889-31.997-4.12-39.782-4.932-12.845-1.344-13.09-1.37-19.128-5.938-3.746-2.835-10.018-7.58-23.77-15.718-37.71-22.313-37.019-27.325-32.523-59.933 1.657-12.024 3.93-28.495 4.931-51.125l.006-.162.073-.144c11.044-22.09 14.404-28.066 16.018-30.938 1.636-2.907 1.636-2.907 6.034-13.17 2.94-6.86 19.394-11.854 33.912-16.262 8.731-2.65 16.98-5.155 20.82-7.623.941-.604 5.465-1.441 11.516-1.441 11.284 0 33.817 2.826 57.96 21.758 2.704 2.122 5.29 4.123 7.757 6.033 29.941 23.191 42.334 32.792 41.646 77.314-.043 2.782-.048 5.291-.053 7.717-.033 16.992-.053 24.746-13.138 39.755-41.2 47.231-54.026 55.202-67.195 55.202z" fill="#2879FF"/><path fill="#1056CA" d="M391.395 69.848l-13.697-8.627 2.747-4.358 13.696 8.63-2.746 4.355"/><path fill="#1A4B76" d="M287.074 235.451l-13.694-8.629 2.747-4.356 13.695 8.627-2.748 4.358"/><path fill="#1056CA" d="M409.044 204.033l8.628-13.698 4.357 2.747-8.632 13.694-4.353-2.743"/><path fill="#1A4B76" d="M243.465 99.695L252.09 86l4.36 2.745-8.63 13.695-4.356-2.745"/><path d="M343.491 81.532c17.103 2.77 32.346 12.305 42.373 26.141 5.942-4.294 12.116-8.755 18.538-13.392-13.543-18.715-34.136-31.596-57.27-35.324-1.001 6.215-2.201 13.667-3.64 22.575m53.87 74.586c-2.77 17.101-12.305 32.35-26.138 42.375 4.294 5.946 8.754 12.128 13.395 18.547 18.712-13.54 31.591-34.142 35.313-57.282l-22.57-3.64" fill="#FC5D16"/><path d="M342.895 210.09a64.846 64.846 0 0 1-20.11-.09c-1.168 7.233-2.379 14.756-3.642 22.572a87.918 87.918 0 0 0 27.194.105c14.317-2.172 27.302-7.689 38.282-15.637-4.641-6.419-9.101-12.6-13.395-18.547a64.628 64.628 0 0 1-28.329 11.596M397.452 136a64.83 64.83 0 0 1-.09 20.118l22.57 3.64a87.71 87.71 0 0 0 .106-27.182c-2.174-14.325-7.69-27.311-15.636-38.295-6.422 4.637-12.596 9.098-18.538 13.392A64.688 64.688 0 0 1 397.452 136m-74.074-54.558a64.761 64.761 0 0 1 20.113.09c1.44-8.908 2.64-16.36 3.64-22.575a87.858 87.858 0 0 0-27.185-.112c-14.323 2.174-27.308 7.693-38.285 15.638 3.69 5.106 8.108 11.226 13.394 18.55a64.652 64.652 0 0 1 28.323-11.591m-54.552 74.084a64.841 64.841 0 0 1 .09-20.118c-8.908-1.437-16.359-2.64-22.577-3.64a87.768 87.768 0 0 0-.11 27.19c2.176 14.323 7.695 27.312 15.64 38.293 5.105-3.687 11.226-8.111 18.544-13.398a64.708 64.708 0 0 1-11.587-28.327" fill="#FFFFFE"/><path d="M295.055 93.033c-5.286-7.324-9.705-13.444-13.394-18.55-18.72 13.541-31.596 34.144-35.322 57.285 6.218 1 13.669 2.203 22.577 3.64 2.769-17.1 12.304-32.347 26.14-42.375M322.785 210c-17.099-2.77-32.344-12.31-42.372-26.147L261.87 197.25c13.543 18.716 34.14 31.596 57.274 35.321 1.263-7.816 2.474-15.339 3.642-22.573" fill="#E26342"/><path d="M324.74 90.435a55.925 55.925 0 0 1 17.306.075c.505-3.145.99-6.136 1.445-8.978a64.761 64.761 0 0 0-20.113-.09 64.652 64.652 0 0 0-28.323 11.59l5.32 7.368a55.696 55.696 0 0 1 24.364-9.965" fill="#EEECE7"/><path d="M300.374 100.4c-1.863-2.582-3.634-5.036-5.319-7.367-13.835 10.028-23.37 25.274-26.139 42.375l8.973 1.446c2.374-14.732 10.573-27.834 22.485-36.454" fill="#D9593B"/><path d="M378.491 113c2.413-1.746 4.875-3.523 7.373-5.327-10.027-13.836-25.27-23.371-42.373-26.141-.456 2.842-.94 5.833-1.445 8.978 14.724 2.373 27.824 10.578 36.445 22.49M365.9 191.127c1.747 2.412 3.52 4.87 5.324 7.366 13.833-10.025 23.368-25.274 26.138-42.375-3.042-.492-6.036-.97-8.978-1.446-2.368 14.728-10.571 27.831-22.485 36.455" fill="#EB5816"/><path d="M397.452 136a64.671 64.671 0 0 0-11.588-28.327c-2.498 1.804-4.96 3.581-7.373 5.327a55.706 55.706 0 0 1 9.966 24.37 55.854 55.854 0 0 1-.073 17.302c2.942.475 5.936.954 8.978 1.446a64.83 64.83 0 0 0 .09-20.118m-119.639 18.163a55.873 55.873 0 0 1 .076-17.31l-8.973-1.445a64.841 64.841 0 0 0-.09 20.118 64.708 64.708 0 0 0 11.587 28.327l7.367-5.321a55.765 55.765 0 0 1-9.967-24.37" fill="#EEECE7"/><path d="M324.233 201.02c-14.73-2.373-27.83-10.574-36.453-22.488-2.58 1.864-5.033 3.636-7.367 5.32 10.028 13.838 25.273 23.378 42.372 26.147.492-3.043.97-6.037 1.448-8.98" fill="#D9593B"/><path d="M341.538 201.09a55.98 55.98 0 0 1-17.305-.07c-.478 2.942-.956 5.936-1.448 8.98a64.846 64.846 0 0 0 20.11.09 64.628 64.628 0 0 0 28.33-11.597c-1.805-2.496-3.578-4.954-5.326-7.366a55.687 55.687 0 0 1-24.36 9.964" fill="#EEECE7"/><path d="M261.869 197.25c-2.476 1.79-4.712 3.407-6.734 4.867 14.836 20.473 37.39 34.583 62.684 38.68.45-2.777.89-5.52 1.324-8.225-23.134-3.725-43.731-16.605-57.274-35.321" fill="#D9593B"/><path d="M246.228 158.957a87.768 87.768 0 0 1 .111-27.19l-8.214-1.325a95.739 95.739 0 0 0-.134 29.765c2.378 15.667 8.43 29.885 17.144 41.91l6.734-4.866c-7.945-10.981-13.464-23.97-15.64-38.294M384.62 217.04c-10.98 7.948-23.966 13.465-38.283 15.637a87.918 87.918 0 0 1-27.194-.105 5503.35 5503.35 0 0 1-1.324 8.226 95.888 95.888 0 0 0 29.757.135c15.668-2.381 29.884-8.436 41.91-17.154-1.645-2.274-3.268-4.52-4.867-6.739" fill="#EEECE7"/><path d="M384.62 217.04a4323.97 4323.97 0 0 0 4.866 6.74c20.464-14.837 34.572-37.394 38.67-62.695-2.775-.449-5.516-.89-8.224-1.327-3.722 23.14-16.6 43.741-35.313 57.282M347.131 58.957c23.135 3.728 43.728 16.61 57.271 35.324 2.22-1.603 4.465-3.228 6.744-4.872-14.832-20.47-37.39-34.58-62.688-38.676l-1.327 8.224" fill="#EB5816"/><path d="M420.038 132.576a87.71 87.71 0 0 1-.106 27.182c2.708.436 5.449.878 8.224 1.327a95.998 95.998 0 0 0 .139-29.765c-2.38-15.67-8.435-29.885-17.149-41.91-2.28 1.643-4.524 3.268-6.744 4.87 7.945 10.985 13.462 23.97 15.636 38.296" fill="#EEECE7"/><path d="M281.66 74.483c-1.79-2.475-3.407-4.714-4.866-6.737-20.469 14.84-34.576 37.395-38.67 62.696l8.215 1.326c3.726-23.141 16.602-43.744 35.322-57.285" fill="#D9593B"/><path d="M319.946 58.845a87.858 87.858 0 0 1 27.185.112l1.327-8.224a95.79 95.79 0 0 0-29.761-.135c-15.667 2.38-29.88 8.432-41.903 17.148 1.459 2.023 3.076 4.262 4.867 6.737 10.977-7.945 23.962-13.464 38.285-15.638" fill="#EEECE7"/><path d="M222.654 2.05a72.348 72.348 0 0 0-11.164-.878h-.313l-.005-.967h.319c3.738 0 7.544.3 11.313.89l-.15.955zm-33.986 3.28l-.354-.9a59.39 59.39 0 0 1 11.234-3.175l.173.952a58.441 58.441 0 0 0-11.053 3.122zm55.845 3.735a72.847 72.847 0 0 0-10.653-4.359l.295-.921a73.837 73.837 0 0 1 10.794 4.417l-.436.863zm-74.61 9.138l-.718-.647a49.255 49.255 0 0 1 8.803-7.677l.545.799a48.323 48.323 0 0 0-8.63 7.525zm92.894 4.621a58.767 58.767 0 0 0-8.5-7.716l.577-.775a59.61 59.61 0 0 1 8.641 7.845l-.718.646zm-103.96 15.298l-.925-.285c1.18-3.824 2.7-7.443 4.52-10.757l.847.465c-1.79 3.257-3.284 6.815-4.442 10.577zm114.952 4.615a46.51 46.51 0 0 0-4.306-10.606l.845-.47a47.448 47.448 0 0 1 4.395 10.827l-.934.25zM155.695 60.86h-.967v-.129c0-3.977.246-7.847.73-11.498l.957.127c-.477 3.61-.72 7.436-.72 11.371v.129zm-85.872 6.749l-.114-.96c3.83-.46 7.74-.718 11.62-.766l.012.967c-3.847.047-7.72.303-11.518.759zm34.475 1.39a110.179 110.179 0 0 0-11.425-1.682l.09-.963c3.856.362 7.734.932 11.525 1.696l-.19.948zM47.394 72.88l-.328-.91a100.93 100.93 0 0 1 11.172-3.3l.22.941a99.823 99.823 0 0 0-11.064 3.269zm78.896 3.024a110.576 110.576 0 0 0-10.813-4.034l.288-.921c3.69 1.159 7.36 2.528 10.91 4.07l-.385.885zM26.927 83.38l-.556-.79a83.467 83.467 0 0 1 9.997-5.997l.44.861a82.438 82.438 0 0 0-9.881 5.926zm130.203.614c-.763-3.928-1.351-7.8-1.749-11.505l.96-.103c.396 3.678.98 7.522 1.738 11.424l-.949.184zm-10.758 3.237a113.424 113.424 0 0 0-9.748-6.182l.475-.842a114.753 114.753 0 0 1 9.832 6.234l-.559.79zM10.614 99.46l-.794-.552c2.16-3.106 4.703-6.097 7.562-8.888l.675.692c-2.815 2.748-5.318 5.692-7.443 8.749zm151.671 1.287l-1.317-1.293a121.442 121.442 0 0 0-5.515-5.095l.633-.73a122.727 122.727 0 0 1 4.263 3.88 214.29 214.29 0 0 1-.597-2.184l.933-.25c.344 1.286.706 2.585 1.087 3.9l.513 1.772zM2.12 120.566l-.957-.137a48.072 48.072 0 0 1 3.064-11.268l.896.364a47.076 47.076 0 0 0-3.003 11.04zm1.288 22.954c-1.255-3.8-2.086-7.639-2.47-11.413l.961-.099c.377 3.705 1.194 7.476 2.427 11.21l-.918.302zm10.981 20.49c-2.408-3.23-4.531-6.527-6.31-9.799l.848-.461c1.758 3.23 3.857 6.489 6.237 9.683l-.775.578zm15.831 17.03a130.591 130.591 0 0 1-8.34-8.113l.704-.661a129.313 129.313 0 0 0 8.28 8.053l-.644.722zm17.97 14.605a44.385 44.385 0 0 0-5.04-4.234 187.254 187.254 0 0 1-3.964-2.962l.588-.767c1.279.982 2.605 1.974 3.945 2.947a45.44 45.44 0 0 1 5.15 4.328l-.679.688zm9.725 20.35l-.967-.015.003-.437c0-3.772-.737-7.354-2.192-10.647l.884-.39c1.51 3.417 2.275 7.13 2.275 11.037l-.003.453zM51.3 238.242l-.859-.444c1.963-3.8 3.437-7.264 4.507-10.592l.92.297c-1.085 3.378-2.581 6.892-4.568 10.739zm-12.357 19.716l-.79-.556c2.59-3.687 4.647-6.74 6.474-9.61l.817.52c-1.837 2.881-3.902 5.946-6.5 9.646zm-13.43 18.941l-.798-.543c2.2-3.241 4.607-6.607 6.69-9.508l.785.564c-2.08 2.896-4.481 6.256-6.677 9.487zM14.71 297.18l-.928-.272c.927-3.165 2.476-6.66 4.735-10.685l.844.473c-2.224 3.96-3.746 7.39-4.65 10.484zm6.653 20.149c-3.974-2.414-6.511-5.27-7.755-8.732l.91-.327c1.166 3.246 3.568 5.938 7.346 8.231l-.501.828zm21.979 6.825c-4.15-.652-7.908-1.452-11.172-2.376l.264-.931c3.226.915 6.946 1.705 11.058 2.35l-.15.957z" fill="#78C2D0"/><use fill="#DDE0E2" xlink:href="#c" transform="translate(38.058 129.218)"/><path d="M327.846 345.22c0 7.254-5.884 13.126-13.119 13.126H146.903c-7.251 0-13.124-5.872-13.124-13.126V64.616c0-7.242 5.873-13.118 13.124-13.118h167.824c7.235 0 13.119 5.876 13.119 13.118V345.22" fill="#2879FF"/><path d="M146.903 52.758c-6.542 0-11.864 5.32-11.864 11.858V345.22c0 6.542 5.322 11.866 11.864 11.866h167.824c6.538 0 11.86-5.324 11.86-11.866V64.616c0-6.539-5.322-11.858-11.86-11.858H146.903zm167.824 306.85H146.903c-7.931 0-14.383-6.453-14.383-14.388V64.616c0-7.928 6.452-14.378 14.383-14.378h167.824c7.928 0 14.378 6.45 14.378 14.378V345.22c0 7.935-6.45 14.387-14.378 14.387z" fill="#1056CA"/><path fill="#FFF" d="M137.858 326.997h186.239V72.204h-186.24z"/><path d="M108.755 379.855a5.314 5.314 0 0 0-1.37 5.15 5.253 5.253 0 0 0 2.488 3.19c1.229.7 2.653.878 4.012.503a5.276 5.276 0 0 0 2.33-1.352 5.306 5.306 0 0 0 1.366-5.143c-.774-2.813-3.69-4.473-6.498-3.702-.88.244-1.685.71-2.328 1.354zm9.51 9.541a8.178 8.178 0 0 1-3.61 2.098 8.121 8.121 0 0 1-6.215-.777 8.135 8.135 0 0 1-3.85-4.942 8.216 8.216 0 0 1 2.114-7.97 8.174 8.174 0 0 1 3.61-2.098c4.35-1.197 8.865 1.372 10.062 5.726a8.207 8.207 0 0 1-2.111 7.963zM64.824 234.023c-2.19 2.889-4.608 6.498-4.842 8.097-.403 2.747 1.316 8.998 3.065 11.15 1.214 1.495 6.912 3.938 10.218 5.127l.697.25.206.714c1.137 3.944 27.814 96.983 25.39 128.307-.233 2.986 1.44 5.034 2.884 6.224 3.385 2.795 9.11 3.924 13.611 2.686 3.344-.919 6.51-2.693 8.685-4.868 2.947-2.947 5.474-8.045.784-15.586-16.164-25.99-42.525-115.06-43.64-118.838l-.217-.739.489-.594c2.235-2.712 5.886-7.724 6.164-9.629.402-2.748-1.318-8.998-3.069-11.147-1.02-1.257-4.945-3.122-8.306-4.487l4.136 15.034-12.12 3.33-4.135-15.031zm61.964 159.737c-2.52 2.52-6.152 4.567-9.965 5.614-5.43 1.493-12.102.16-16.227-3.245-2.791-2.303-4.186-5.388-3.93-8.687 2.277-29.397-22.571-117.743-25.083-126.574-2.47-.921-8.935-3.49-10.786-5.769-2.282-2.807-4.21-9.82-3.683-13.4.513-3.52 6.543-10.917 7.228-11.748l1.777-2.155 4.867 17.694 6.527-1.794-4.867-17.695 2.629.943c1.014.365 9.982 3.64 12.225 6.404 2.28 2.802 4.211 9.813 3.687 13.395-.423 2.897-4.641 8.382-6.306 10.453 2.61 8.76 27.907 92.963 43.103 117.396 5.996 9.64 1.826 16.147-1.196 19.168z" fill="#78C2D0"/><path fill="#DFDFDF" d="M137.693 83.808H323.93V71.886H137.693z"/><path d="M241.826 64.094h-22.02a1.91 1.91 0 0 1-1.908-1.906c0-1.05.856-1.905 1.908-1.905h22.02a1.905 1.905 0 0 1 0 3.811" fill="#FFFFFE"/><path d="M230.812 335.322a6.105 6.105 0 0 0-6.095 6.1c0 3.36 2.734 6.098 6.095 6.098a6.106 6.106 0 0 0 6.099-6.098c0-3.363-2.735-6.1-6.099-6.1m0 14.719c-4.75 0-8.616-3.867-8.616-8.62 0-4.752 3.866-8.619 8.616-8.619 4.753 0 8.619 3.867 8.619 8.62 0 4.752-3.866 8.619-8.619 8.619" fill="#1056CA"/><path d="M281.12 106.525c-12.234-4.98-96.57-8.278-99.255 10.362-4.332 30.075-8.708 51.035 14.113 60.06 14.67 5.802 46.91 4.265 67.666 2.331l16.642 12.373-.396-14.243a54.047 54.047 0 0 0 2.055-.333c22.685-4.321 35.54-71.786-.824-71.25-.271.004 0 .7 0 .7z" fill="#FFB839"/><text font-family=".SFNSDisplay, .SF NS Display" font-size="48" letter-spacing="-.768" fill="#FFF" transform="translate(-1)"><tspan x="192" y="159">SMS</tspan></text><path d="M176.702 220.474c.211.004 0 .544 0 .544 9.507-3.87 75.042-6.431 77.128 8.053 3.367 23.37 6.768 39.657-10.967 46.67-11.398 4.508-36.452 3.315-52.58 1.812l-12.933 9.615.308-11.067a45.634 45.634 0 0 1-1.597-.26c-17.628-3.358-27.616-55.783.641-55.367" fill="#799921"/><path d="M192.132 242.344c-.197 3.592-.266 12.201-.042 15.509l10.918-6.953-10.876-8.556zm-1.088 18.467l-.51-.854c-.83-1.391-.57-18.747-.044-19.86l.519-1.097 15.337 12.067-15.302 9.744z" fill="#FFFFFE"/><path d="M192.707 259.943c1 1.116 2.611 2.103 3.914 2.329.082.003 1.172.04 9.41.04 7.287 0 14.702-.03 15.13-.052 2.124-.372 4.545-1.208 5.663-2.206l-11.66-7.64-5.31 4.555-5.314-4.562-11.833 7.536zm13.324 4.302c-9.304 0-9.587-.044-9.724-.066-2.188-.379-4.685-2.096-5.824-3.998l-.483-.807 14.71-9.367 5.144 4.415 5.154-4.422 14.44 9.463-.355.759c-1.24 2.648-6.204 3.697-7.694 3.955-.412.064-15.219.068-15.368.068z" fill="#FFFFFE"/><path d="M216.21 250.635l11.033 7.23c.098-.396.148-.79.148-1.17 0-2.674.118-4.838.234-6.933.113-2.068.231-4.207.231-6.828 0-.634-.14-1.302-.402-1.948l-11.244 9.649zm11.93 10.128l-15.14-9.92L227.965 238l.599.94c.801 1.258 1.226 2.64 1.226 3.994 0 2.675-.12 4.84-.236 6.934-.113 2.068-.23 4.206-.23 6.827 0 1.009-.246 2.068-.71 3.058l-.474 1.01z" fill="#FFFFFE"/><path d="M192.47 240.763l17.252 13.921 17.087-14.662c-.883-1.057-2.06-1.782-3.268-1.992-9.21-1.46-16.996-1.463-26.233.004-1.619.28-3.797 1.41-4.838 2.729zm17.29 16.436L190 241.253l.326-.688c1.059-2.24 4.22-4.017 6.666-4.44 9.467-1.501 17.427-1.498 26.865-.001 1.99.343 3.881 1.662 5.073 3.53l.452.707L209.76 257.2z" fill="#FFFFFE"/><g transform="translate(348.716 289.86)"><mask id="e" fill="#fff"><use xlink:href="#d"/></mask><path fill="#0B0B09" mask="url(#e)" d="M.38.01l-.864 2.774 2.24.698L2.62.708"/></g><g transform="translate(347.755 287.936)"><mask id="g" fill="#fff"><use xlink:href="#f"/></mask><path fill="#D88A6E" mask="url(#g)" d="M.228-.168L-.03.664.532.84l.26-.832"/><path fill="#D7896D" mask="url(#g)" d="M.792.007l-.26.832.272.085.26-.833"/><path fill="#D7896D" mask="url(#g)" d="M1.063.091L.804.924l.02.006.259-.832"/><path fill="#D7886D" mask="url(#g)" d="M1.083.098L.823.93l.02.006.259-.833"/></g><path d="M306.674 371.18c0 5.473-4.43 9.906-9.899 9.906h-46.914c-5.47 0-9.9-4.433-9.9-9.907 0-5.46 4.43-9.889 9.9-9.889h46.914c5.47 0 9.899 4.43 9.899 9.89" fill="#558B95"/><path d="M276.823 389.616l4.822-1.108 2.973-.623c2.403 1.176 6.037-.73 8.617-.639 2.542.09 1.626-.716 4.531-.568.56.03 2.348 2.837 2.16 3.355-.754 2.115-3.645 2.692-5.392 3.117-1.728.417-5.378.8-7.131 1.063-3.969.584-6.138.104-6.474 1.046-.23.63-4.384 1.076-4.407.029-.052-2.682.418-4.326.301-5.672" fill="#941800"/><path d="M300.409 368.058c10.204-1.181 14.479-.655 16.528-4.622 2.762-5.37 7.017-2.896-3.666-18.375-16.133-23.368-13.93-29.23-34.012-31.361-1.31-.14-4.764.165-7.935.47-3.086.296-5.903.592-6.21.479-.752-.294-.26-.04-.987-.396-2.418-1.177-9.502-2.091-16.102 5.24 0 0-24.195 32.786-21.99 40 .501 1.669 2.386 4.9 27.632 8.565 1.223.177 25.136 2.5 46.742 0" fill="#FC5D16"/><path d="M252.738 353.4l-.355-.135c-4.897-2.577-6.56-4.326-13.852-7.991l-.331-.852c5.083 2.296 14.134 8.664 14.538 8.979m39.781 2.614c.406-.32 9.451-6.693 14.543-8.99l-.342.851c-7.283 3.674-8.943 5.42-13.844 7.993l-.357.146" fill="#A12629"/><path d="M265.056 309.917c.344 1.262-.129 7.295-.129 7.295-.08 5.403 3.473 8.454 7.605 8.454a7.48 7.48 0 0 0 7.48-7.48l-2.187-10.454s-13.624-.939-12.769 2.185" fill="#F7D0C2"/><path d="M282.403 398.259l-58.722-22.085c-3.98-1.897-5.663-6.667-3.765-10.646 1.903-3.979 6.667-5.664 10.642-3.76l58.73 22.08-6.885 14.41" fill="#60A3B0"/><path d="M241.397 366.924a2.058 2.058 0 0 0-.099.62c0 1.136.924 2.054 2.057 2.054h56.614a2.055 2.055 0 0 0 1.962-2.674h-60.534" fill="#E4E2DC"/><path d="M294.7 337.196h-46.067a2.368 2.368 0 0 0-2.362 2.356v25.256c0 1.3 1.063 2.36 2.362 2.36H294.7a2.365 2.365 0 0 0 2.358-2.36v-25.256a2.366 2.366 0 0 0-2.358-2.356" fill="#FFFFFE"/><path d="M269.371 388.13l-4.813-1.109-2.972-.625c-2.407 1.173-9.644-.713-12.55-.566-.56.033-2.945 2.195-2.765 2.718.753 2.113 3.647 2.687 5.399 3.116 1.724.415 5.37.798 7.13 1.061 3.966.587 6.136.11 6.472 1.053.227.626 4.387 1.07 4.401.02.06-2.682-.414-4.32-.302-5.669" fill="#941800"/><path d="M264.902 399.463l58.726-22.091a7.972 7.972 0 0 0 3.758-10.644c-1.895-3.979-6.657-5.663-10.637-3.764l-58.728 22.09 6.881 14.409" fill="#78C2D0"/><path d="M260.547 299.951c-.309 9.157-1.634 9.571 3.931 9.252 1.061-.063.49 7.477.49 7.477s-.035.432.074 1.027h13.177l1.654.411s-2.288-14.894-2.351-14.967c-.854-.902-2.867.722-2.575-.02.127-.298 1.08-.98 2.084-3.79.69-1.952-.421-4.817-3.377-1.483-.075.092-.134.153-.17.211.132-.188.355-.527.34-.695.397-2.734 1.33-8.058.872-8.166-6.41-.909-8.263-1.809-10.798-1.881-.265-.001 2.168 2.924-2.44 8.147-4.58 5.19-.904 4.044-.91 4.477" fill="#F7D0C2"/><g transform="translate(264.079 305.25)"><mask id="i" fill="#fff"><use xlink:href="#h"/></mask><path fill="#DEAB8C" mask="url(#i)" d="M8.583 13.262l-10.939-2.356.876-4.066L9.458 9.195"/><path fill="#DEAA8B" mask="url(#i)" d="M9.458 9.195L-1.48 6.84l.007-.033L9.465 9.162"/><path fill="#DEAA8C" mask="url(#i)" d="M9.465 9.162L-1.473 6.807l.025-.115L9.49 9.047"/><path fill="#DEA98C" mask="url(#i)" d="M9.49 9.047L-1.448 6.692l.035-.164L9.526 8.883"/><path fill="#DEA88B" mask="url(#i)" d="M9.526 8.883l-10.94-2.355.008-.033L9.533 8.85"/><path fill="#DEA88C" mask="url(#i)" d="M9.533 8.85l-10.94-2.355.019-.082L9.55 8.768"/><path fill="#DEA88C" mask="url(#i)" d="M9.55 8.768L-1.388 6.413l.031-.148 10.94 2.356"/><path fill="#DDA78B" mask="url(#i)" d="M9.582 8.62L-1.357 6.266l.011-.049L9.593 8.571"/><path fill="#DEA78C" mask="url(#i)" d="M9.593 8.571L-1.346 6.216l.025-.115L9.617 8.456"/><path fill="#DEA68C" mask="url(#i)" d="M9.617 8.456L-1.32 6.101l.025-.115L9.642 8.341"/><path fill="#DEA68B" mask="url(#i)" d="M9.642 8.341L-1.296 5.986l.007-.033L9.649 8.309"/><path fill="#DEA68C" mask="url(#i)" d="M9.65 8.309L-1.29 5.953l.025-.115 10.94 2.356"/><path fill="#DDA58C" mask="url(#i)" d="M9.674 8.194L-1.265 5.838l.025-.115L9.7 8.079"/><path fill="#DDA48B" mask="url(#i)" d="M9.699 8.079L-1.24 5.723l.01-.05L9.71 8.03"/><path fill="#DDA48C" mask="url(#i)" d="M9.71 8.03L-1.23 5.674l.018-.082 10.94 2.355"/><path fill="#DDA38C" mask="url(#i)" d="M9.727 7.947L-1.212 5.592l.032-.148L9.76 7.8"/><path fill="#DDA38C" mask="url(#i)" d="M9.759 7.8L-1.18 5.444l.032-.148L9.791 7.652"/><path fill="#DDA28B" mask="url(#i)" d="M9.79 7.652L-1.147 5.296l.017-.082L9.81 7.57"/><path fill="#DEA28C" mask="url(#i)" d="M9.808 7.57L-1.13 5.214l.011-.049L9.82 7.521"/><path fill="#DEA28C" mask="url(#i)" d="M9.819 7.52L-1.12 5.166l.032-.148L9.851 7.373"/><path fill="#DEA18B" mask="url(#i)" d="M9.85 7.373L-1.087 5.017l.018-.082L9.868 7.291"/><path fill="#DDA18C" mask="url(#i)" d="M9.868 7.29L-1.07 4.936l.007-.033L9.876 7.258"/><path fill="#DDA08B" mask="url(#i)" d="M9.876 7.258l-10.94-2.356.036-.164L9.911 7.094"/><path fill="#DD9F8B" mask="url(#i)" d="M9.91 7.094L-1.027 4.738l.014-.065 10.94 2.355"/><path fill="#DD9F8B" mask="url(#i)" d="M9.925 7.028L-1.014 4.673l.01-.05 10.94 2.356"/><path fill="#DD9F8B" mask="url(#i)" d="M9.936 6.979l-10.94-2.356.026-.115L9.96 6.864"/><path fill="#DD9E8B" mask="url(#i)" d="M9.96 6.864L-.978 4.508.47-2.223 11.41.132"/></g><path d="M281.643 284.949c-3.25-2.8-4.515.362-8.43-2.053-3.485-2.151-6.032.473-8.18.427-6.897-.143-7.141 4.665-.212 5.73 2.172-.127 4.817 2.214 7.163 1.313.145 1.158.572 5 .171 7.732.034.344.316 1.543 1.031.694 2.953-3.34 4.534-1.403 3.845.55-1.004 2.81-2.533 2.447-2.535 3.087-.01 1.118.815 2.188 1.665 3.012 1.482 1.427 1.985 1.535 2.086-.916.149-3.471 9.593-14.239 3.396-19.576" fill="#941800"/><path d="M260.384 302.984l-.082 1.188c1.153.013 4.107-1.621 4.107-1.621l-4.025.433" fill="#FFFFFE"/></g></svg>